<?xml version="1.0" encoding="UTF-8" standalone="no"?>
<!DOCTYPE svg PUBLIC "-//W3C//DTD SVG 1.1//EN" "http://www.w3.org/Graphics/SVG/1.1/DTD/svg11.dtd">
<svg xmlns="http://www.w3.org/2000/svg" version="1.1" viewBox="0.00 0.00 512.00 512.00">
<path fill="#000000" d="
  M 245.54 128.00
  L 71.48 128.00
  Q 70.91 128.00 70.73 128.55
  Q 31.22 250.52 32.04 381.25
  Q 32.10 389.92 34.70 396.25
  Q 34.90 396.72 34.43 396.94
  L 20.98 403.07
  Q 20.47 403.30 20.24 402.79
  C 15.74 392.55 15.76 383.42 15.82 371.50
  Q 16.39 246.32 54.42 127.23
  Q 54.58 126.71 54.08 126.52
  Q 37.89 120.33 33.35 104.89
  Q 31.98 100.25 32.00 91.52
  Q 32.02 77.74 32.09 64.00
  C 32.21 41.38 47.65 21.92 69.83 17.19
  Q 75.44 15.99 89.74 15.99
  Q 193.62 16.01 297.50 16.00
  C 320.59 15.99 338.26 31.35 344.29 53.51
  Q 358.27 104.88 363.51 125.51
  Q 363.68 126.16 363.03 126.31
  L 348.51 129.66
  Q 347.96 129.79 347.82 129.24
  Q 336.53 83.83 327.73 53.75
  C 323.74 40.11 309.36 31.45 295.76 31.98
  C 277.85 32.68 265.23 45.23 263.92 63.41
  A 0.53 0.53 0.0 0 0 264.44 63.98
  Q 282.86 64.05 301.06 64.00
  C 308.23 63.98 311.97 65.99 311.98 73.45
  Q 312.00 84.61 311.90 95.75
  C 311.76 110.22 302.83 122.75 288.90 126.73
  C 281.92 128.72 271.76 128.04 263.54 127.99
  A 0.74 0.73 -80.3 0 0 262.83 128.50
  Q 251.19 164.34 242.98 201.11
  Q 242.84 201.73 242.22 201.59
  L 227.64 198.36
  Q 227.21 198.26 227.31 197.84
  Q 235.11 162.81 245.98 128.60
  Q 246.17 128.00 245.54 128.00
  Z
  M 80.25 31.99
  C 66.04 31.99 53.41 41.26 49.43 54.66
  Q 48.00 59.45 48.01 69.99
  Q 48.01 80.38 47.98 90.79
  Q 47.95 98.72 49.29 102.08
  C 52.28 109.61 58.71 111.99 66.73 111.99
  Q 159.24 112.01 251.77 112.00
  A 0.34 0.34 0.0 0 0 252.07 111.49
  Q 248.03 104.23 248.01 95.75
  Q 247.98 84.00 248.00 72.26
  Q 248.02 58.14 249.45 52.37
  Q 252.19 41.31 259.94 32.41
  A 0.25 0.25 0.0 0 0 259.75 32.00
  Q 169.88 32.00 80.25 31.99
  Z
  M 295.52 80.03
  L 264.52 79.97
  A 0.51 0.51 0.0 0 0 264.01 80.48
  L 263.98 95.76
  A 16.17 15.86 -89.9 0 0 279.81 111.96
  L 280.11 111.96
  A 16.17 15.86 -89.9 0 0 296.00 95.82
  L 296.03 80.54
  A 0.51 0.51 0.0 0 0 295.52 80.03
  Z"
/>
<path fill="#000000" d="
  M 386.74 209.72
  L 330.62 315.17
  Q 330.33 315.72 329.78 315.43
  L 316.72 308.48
  Q 316.20 308.21 316.48 307.69
  L 371.00 205.22
  Q 371.24 204.76 370.80 204.49
  L 365.58 201.38
  Q 365.14 201.12 364.76 201.45
  C 343.54 220.13 327.36 241.56 314.18 266.45
  Q 302.02 289.39 290.18 312.96
  A 0.70 0.69 -62.9 0 1 289.24 313.27
  L 276.03 306.48
  Q 275.63 306.27 275.83 305.87
  Q 287.27 283.32 298.76 260.85
  Q 319.95 219.45 354.89 188.81
  Q 355.31 188.44 355.13 187.92
  L 353.97 184.46
  A 0.56 0.56 0.0 0 0 353.22 184.12
  Q 308.08 203.60 283.27 244.94
  Q 280.13 250.16 273.93 262.61
  Q 264.70 281.13 255.42 299.62
  Q 255.17 300.14 254.65 299.88
  L 241.28 293.20
  Q 240.86 292.99 241.07 292.57
  Q 250.49 273.71 259.90 254.86
  Q 265.93 242.78 269.27 237.19
  Q 298.90 187.68 353.83 166.71
  Q 354.32 166.53 354.51 166.04
  C 355.55 163.34 356.67 161.03 358.21 158.52
  Q 388.56 108.79 418.98 59.10
  Q 423.61 51.53 427.17 48.35
  C 449.75 28.16 486.22 50.07 478.06 79.73
  Q 476.63 84.92 468.96 97.45
  Q 439.81 145.08 410.71 192.73
  Q 408.01 197.16 403.19 200.93
  Q 402.78 201.25 402.83 201.76
  Q 407.01 248.29 386.43 289.96
  Q 383.38 296.13 372.60 315.39
  Q 372.37 315.79 371.98 315.57
  L 358.83 308.39
  A 0.54 0.54 0.0 0 1 358.62 307.66
  Q 370.44 286.36 373.16 280.67
  Q 389.18 247.10 387.32 209.85
  Q 387.26 208.73 386.74 209.72
  Z
  M 461.1144 79.9241
  A 15.08 15.08 0.0 0 0 456.1721 59.1783
  L 455.7462 58.9163
  A 15.08 15.08 0.0 0 0 435.0005 63.8586
  L 370.8856 168.0759
  A 15.08 15.08 0.0 0 0 375.8279 188.8217
  L 376.2538 189.0837
  A 15.08 15.08 0.0 0 0 396.9995 184.1414
  L 461.1144 79.9241
  Z"
/>
<path fill="#000000" d="
  M 115.78 309.79
  Q 117.97 317.85 120.12 323.38
  Q 128.12 343.92 136.12 364.54
  Q 136.35 365.13 135.76 365.36
  L 122.03 370.68
  Q 121.48 370.90 121.26 370.35
  Q 113.70 351.28 106.41 332.13
  C 100.16 315.73 97.01 302.19 96.12 285.25
  C 95.80 279.26 95.99 274.28 98.68 268.91
  C 107.36 251.68 128.78 242.82 145.76 236.65
  Q 153.86 233.71 164.91 230.91
  Q 209.18 219.69 254.93 217.44
  Q 255.51 217.41 255.55 218.00
  L 256.47 232.71
  Q 256.50 233.19 256.02 233.22
  C 224.63 235.22 191.31 239.74 160.01 248.86
  C 146.27 252.86 124.64 260.45 114.91 272.65
  C 102.58 288.12 134.54 302.05 144.50 305.67
  Q 144.99 305.84 145.18 305.36
  C 149.66 294.18 161.41 287.06 172.82 282.64
  Q 200.65 271.88 230.32 268.45
  Q 230.93 268.38 231.01 268.99
  L 233.02 283.51
  Q 233.10 284.13 232.48 284.21
  Q 210.05 287.11 188.53 293.84
  C 178.85 296.87 166.28 301.56 160.33 310.11
  A 0.92 0.92 0.0 0 0 160.84 311.53
  Q 199.34 322.13 239.28 325.53
  C 293.20 330.12 350.73 328.85 405.21 317.88
  Q 418.49 315.21 431.43 311.29
  Q 432.04 311.11 431.74 310.55
  C 426.80 301.25 407.88 294.76 398.25 292.27
  A 0.52 0.52 0.0 0 1 397.88 291.62
  L 402.06 277.26
  Q 402.21 276.71 402.77 276.86
  Q 414.40 280.00 428.16 286.88
  Q 441.19 293.39 447.18 305.27
  Q 447.38 305.66 447.79 305.51
  C 457.15 302.13 488.43 288.49 477.69 273.55
  C 474.89 269.65 471.20 266.48 466.87 263.79
  C 451.13 254.02 432.19 248.26 414.73 244.20
  Q 414.17 244.07 414.30 243.51
  L 417.70 229.01
  Q 417.82 228.49 418.33 228.61
  C 438.91 233.31 462.91 240.98 480.70 254.04
  Q 485.63 257.66 490.21 263.79
  C 496.87 272.70 496.46 280.42 495.40 292.29
  Q 493.72 311.05 486.90 328.73
  Q 473.37 363.76 459.72 398.74
  Q 454.64 411.78 446.65 422.11
  Q 446.27 422.61 445.78 422.22
  L 434.08 412.96
  A 0.48 0.48 0.0 0 1 434.00 412.30
  Q 440.29 404.21 444.06 394.62
  Q 457.41 360.65 470.61 326.61
  Q 474.19 317.40 476.17 310.03
  Q 476.30 309.53 475.86 309.79
  Q 451.67 323.46 422.73 330.27
  Q 387.12 338.65 354.26 341.51
  C 296.00 346.57 232.73 344.56 174.25 331.54
  C 154.09 327.05 134.11 320.25 116.18 309.49
  Q 115.61 309.15 115.78 309.79
  Z"
/>
<path fill="#000000" d="
  M 383.58 469.61
  Q 369.67 490.73 345.95 494.99
  Q 340.18 496.03 326.00 496.02
  Q 219.88 495.96 113.76 496.02
  Q 99.72 496.03 93.82 494.93
  Q 70.31 490.55 56.43 469.62
  Q 56.13 469.16 55.57 469.20
  C 51.50 469.45 47.01 470.13 43.39 469.78
  C 16.91 467.26 5.75 433.32 27.32 416.57
  Q 36.19 409.69 47.48 410.36
  Q 51.57 410.60 55.66 410.74
  Q 56.17 410.76 56.45 410.33
  Q 69.57 390.41 91.83 385.39
  Q 98.05 384.00 110.27 384.00
  Q 218.51 384.02 326.75 383.98
  Q 340.70 383.98 346.68 385.13
  Q 369.95 389.61 383.58 410.44
  A 0.89 0.88 -18.9 0 0 384.41 410.84
  Q 386.55 410.64 391.00 410.23
  C 416.02 407.90 432.88 435.05 418.97 456.51
  Q 411.84 467.51 397.74 469.65
  C 393.68 470.27 388.85 469.49 384.41 469.20
  Q 383.88 469.16 383.58 469.61
  Z
  M 96.96 414.72
  C 122.86 417.37 128.48 452.30 105.39 463.03
  Q 101.19 464.98 91.29 465.91
  Q 83.49 466.65 75.96 467.30
  Q 74.73 467.41 75.64 468.24
  Q 90.77 482.17 109.57 479.48
  C 139.23 475.23 154.38 440.70 136.22 416.38
  C 121.34 396.46 92.79 394.35 75.24 412.20
  A 0.25 0.25 0.0 0 0 75.40 412.63
  Q 86.14 413.61 96.96 414.72
  Z
  M 143.56 400.40
  C 165.56 423.11 165.22 456.52 143.72 479.44
  Q 143.21 479.99 143.96 479.99
  Q 236.55 480.02 329.16 480.01
  Q 340.70 480.01 346.22 478.56
  C 379.75 469.79 386.45 425.93 358.10 406.58
  Q 348.44 399.99 336.50 399.99
  Q 240.04 400.00 143.73 400.00
  A 0.24 0.24 0.0 0 0 143.56 400.40
  Z
  M 41.62 426.94
  C 25.85 431.85 30.55 455.31 48.25 453.74
  Q 71.19 451.72 94.13 449.55
  Q 97.46 449.24 99.18 448.25
  C 105.56 444.55 105.59 435.17 99.04 431.70
  Q 97.07 430.66 92.61 430.27
  Q 72.03 428.44 51.45 426.50
  Q 45.01 425.89 41.62 426.94
  Z
  M 407.52 442.80
  C 409.76 433.09 401.09 424.28 390.83 426.45
  Q 390.35 426.55 390.46 427.03
  Q 393.51 440.01 390.47 453.00
  Q 390.33 453.58 390.93 453.67
  C 399.00 454.87 405.66 450.87 407.52 442.80
  Z"
/>
</svg>
