<?xml version="1.0" encoding="UTF-8" standalone="no"?>
<!DOCTYPE svg PUBLIC "-//W3C//DTD SVG 1.1//EN" "http://www.w3.org/Graphics/SVG/1.1/DTD/svg11.dtd">
<svg xmlns="http://www.w3.org/2000/svg" version="1.1" viewBox="0.00 0.00 512.00 512.00">
<path fill="#000000" d="
  M 400.74 261.25
  L 429.17 327.57
  Q 429.38 328.06 429.92 328.06
  C 471.40 327.38 503.52 364.11 494.57 405.40
  C 485.62 446.74 439.51 468.66 401.92 448.34
  Q 374.24 433.39 368.49 400.44
  Q 368.41 400.00 367.97 400.00
  L 247.97 400.00
  Q 247.40 400.00 247.31 400.56
  C 239.65 450.63 180.38 473.20 141.98 439.79
  Q 124.35 424.45 120.70 400.59
  Q 120.62 400.05 120.08 400.04
  Q 109.79 399.91 99.53 400.00
  C 93.38 400.05 88.00 398.76 88.00 391.75
  Q 88.00 355.57 103.87 324.61
  Q 106.85 318.78 112.78 312.60
  Q 113.29 312.06 112.55 312.05
  Q 95.00 311.89 77.50 312.02
  Q 70.19 312.07 66.11 310.82
  Q 50.58 306.05 47.91 288.51
  Q 47.84 288.02 47.34 288.01
  Q 32.67 287.97 17.95 287.98
  Q 13.91 287.98 11.89 286.81
  C 4.92 282.75 8.08 271.94 16.00 271.98
  Q 31.75 272.05 47.50 271.98
  Q 48.00 271.97 48.00 271.47
  L 48.00 256.53
  Q 48.00 256.03 47.51 256.03
  Q 41.11 255.94 34.79 256.00
  Q 30.67 256.03 28.83 255.27
  C 22.48 252.65 22.45 243.57 28.71 240.74
  Q 30.31 240.02 33.39 240.01
  Q 51.20 240.00 69.01 239.99
  Q 73.47 239.99 75.37 240.82
  C 81.39 243.44 81.51 252.24 75.53 255.12
  C 72.69 256.50 68.03 256.00 64.51 256.00
  Q 64.00 256.00 64.00 256.51
  L 64.00 271.47
  Q 64.00 271.98 64.51 271.98
  Q 71.27 272.01 77.93 272.03
  Q 82.25 272.04 84.38 273.37
  C 91.00 277.52 87.73 288.15 80.01 288.03
  Q 72.27 287.91 64.54 288.04
  Q 63.95 288.05 64.10 288.62
  C 65.64 294.42 69.60 295.97 75.51 295.98
  Q 116.88 296.02 158.25 296.00
  Q 164.04 296.00 166.56 291.56
  Q 167.98 289.06 167.98 283.48
  Q 168.01 256.27 168.01 229.05
  C 168.01 223.82 167.69 219.60 163.04 217.22
  C 158.89 215.08 149.97 216.00 144.54 216.00
  Q 144.01 216.00 144.01 216.53
  Q 143.98 226.85 144.00 237.12
  C 144.01 244.04 142.16 248.02 134.84 248.03
  Q 115.41 248.05 96.00 248.05
  C 89.52 248.06 87.99 242.91 88.01 237.14
  Q 88.03 226.87 87.99 216.59
  Q 87.98 216.06 87.45 216.05
  Q 80.52 216.00 73.76 216.09
  C 69.11 216.15 68.15 217.73 64.67 221.41
  C 57.90 228.60 46.78 219.78 52.19 211.50
  Q 57.22 203.80 65.56 201.25
  Q 69.64 200.00 81.58 200.00
  Q 118.20 199.99 154.81 200.01
  C 163.93 200.02 169.81 201.25 176.11 207.07
  Q 176.58 207.50 176.79 206.90
  C 186.23 179.48 201.78 154.26 231.30 146.11
  Q 231.93 145.94 231.43 145.52
  C 204.16 122.73 199.99 83.10 222.59 55.58
  C 247.99 24.63 295.59 23.99 321.20 55.16
  Q 334.06 70.82 335.93 93.00
  Q 336.71 102.15 329.00 104.33
  Q 328.50 104.48 328.52 105.00
  Q 328.88 112.87 332.25 119.87
  Q 332.80 121.02 335.49 124.55
  C 341.92 132.99 336.04 143.68 327.96 148.65
  Q 327.55 148.90 327.45 149.38
  Q 323.32 169.44 303.03 172.49
  Q 302.48 172.57 302.79 173.04
  C 307.75 180.35 315.10 191.82 323.77 196.96
  C 330.12 200.72 339.04 200.73 346.21 199.40
  Q 365.22 195.89 377.99 210.46
  Q 378.31 210.82 378.49 210.38
  Q 387.56 187.99 412.21 184.15
  Q 419.68 182.99 422.60 187.83
  Q 424.04 190.21 424.03 195.87
  Q 423.98 224.59 423.99 253.25
  Q 424.00 258.27 422.64 260.47
  C 418.76 266.73 406.94 263.14 401.08 260.90
  Q 400.50 260.67 400.74 261.25
  Z
  M 291.98 52.59
  Q 279.04 46.47 266.48 48.33
  C 229.50 53.82 211.01 95.91 234.52 126.02
  Q 245.23 139.74 263.49 143.18
  Q 263.94 143.26 263.95 142.80
  Q 264.06 131.77 264.14 120.75
  C 264.24 105.63 274.32 92.62 288.82 89.03
  C 296.71 87.07 309.12 88.07 318.77 87.97
  Q 319.41 87.96 319.28 87.33
  Q 314.18 63.10 291.98 52.59
  Z
  M 285.89 153.63
  C 296.13 157.36 310.55 159.67 311.95 144.42
  C 312.61 137.28 316.72 137.42 320.98 133.33
  Q 321.37 132.95 321.07 132.49
  Q 312.64 119.81 312.03 104.53
  Q 312.01 104.02 311.50 104.01
  C 300.48 103.94 285.90 101.56 281.16 114.94
  Q 279.93 118.40 279.97 127.21
  Q 280.02 139.32 280.00 151.50
  A 0.76 0.75 -85.1 0 0 280.62 152.25
  C 282.62 152.60 284.19 153.01 285.89 153.63
  Z
  M 256.34 210.43
  C 251.99 201.11 264.87 193.72 270.96 203.96
  Q 286.48 230.10 317.32 238.67
  A 0.88 0.88 0.0 0 0 318.43 237.77
  Q 317.74 225.46 323.94 214.92
  Q 324.20 214.48 323.71 214.30
  Q 309.97 209.20 300.12 196.38
  C 289.17 182.15 281.61 167.13 262.94 161.91
  C 240.72 155.69 219.73 164.19 206.57 182.81
  C 193.98 200.63 187.21 223.69 184.36 245.22
  C 183.91 248.63 183.94 251.95 184.03 255.34
  A 0.69 0.68 -0.9 0 0 184.72 256.00
  L 250.72 256.00
  Q 251.13 256.00 251.23 255.59
  Q 255.29 238.79 266.66 225.81
  Q 267.03 225.40 266.67 224.98
  Q 258.68 215.46 256.34 210.43
  Z
  M 407.23 246.49
  Q 408.00 246.87 408.00 246.01
  L 408.00 202.01
  Q 408.00 201.49 407.51 201.65
  C 397.87 204.68 391.96 214.93 392.08 224.07
  C 392.22 234.69 397.88 241.92 407.23 246.49
  Z
  M 352.79 214.82
  C 339.93 215.55 332.71 226.94 334.45 239.49
  A 0.59 0.58 -2.9 0 0 335.01 239.99
  Q 353.66 240.52 370.27 232.20
  A 0.58 0.57 63.0 0 0 370.52 231.41
  C 368.99 228.51 368.31 224.78 366.78 222.42
  Q 361.56 214.32 352.79 214.82
  Z
  M 128.00 216.72
  A 0.72 0.72 0.0 0 0 127.28 216.00
  L 104.72 216.00
  A 0.72 0.72 0.0 0 0 104.00 216.72
  L 104.00 231.28
  A 0.72 0.72 0.0 0 0 104.72 232.00
  L 127.28 232.00
  A 0.72 0.72 0.0 0 0 128.00 231.28
  L 128.00 216.72
  Z
  M 278.05 237.24
  C 273.40 242.59 269.51 249.79 267.56 256.69
  Q 267.41 257.23 267.96 257.33
  C 289.07 261.08 306.01 276.33 310.74 297.35
  Q 312.00 302.99 312.00 315.75
  Q 311.99 334.09 312.01 352.48
  Q 312.01 353.02 312.53 353.17
  Q 331.13 358.40 335.30 377.31
  Q 335.45 377.99 336.02 377.59
  C 344.80 371.36 345.22 358.94 343.07 349.56
  Q 332.35 302.77 321.54 255.88
  A 0.71 0.71 0.0 0 0 320.95 255.34
  Q 297.43 251.85 278.84 237.16
  Q 278.41 236.82 278.05 237.24
  Z
  M 360.58 358.24
  C 360.47 367.48 357.51 375.63 352.42 383.40
  Q 352.03 384.00 352.74 384.00
  L 379.40 384.00
  Q 379.92 384.00 380.22 383.58
  L 414.51 335.46
  A 0.92 0.90 -39.7 0 0 414.60 334.58
  L 377.24 247.51
  A 0.51 0.50 -24.9 0 0 376.55 247.26
  Q 358.57 255.96 338.53 255.99
  Q 338.01 256.00 338.13 256.51
  Q 348.07 299.25 358.06 341.93
  Q 360.64 352.96 360.58 358.24
  Z
  M 182.33 295.56
  Q 182.18 295.98 182.62 295.98
  Q 200.51 296.04 218.56 295.98
  Q 230.00 295.95 235.33 297.35
  C 252.63 301.88 264.15 317.42 263.96 335.26
  Q 263.88 343.20 264.07 351.36
  Q 264.08 352.00 264.73 352.00
  L 295.43 352.00
  A 0.55 0.54 -89.5 0 0 295.97 351.46
  Q 296.09 331.40 295.91 311.27
  C 295.75 292.82 286.93 280.28 270.13 274.43
  Q 263.29 272.04 258.00 272.03
  Q 221.29 271.96 184.56 272.02
  Q 184.04 272.02 184.03 272.53
  C 183.94 280.09 184.93 288.33 182.33 295.56
  Z
  M 112.24 345.39
  Q 105.18 363.83 104.05 383.76
  Q 104.04 384.00 104.28 384.00
  L 255.27 384.00
  Q 256.00 384.00 255.59 383.39
  C 245.70 369.04 248.00 354.30 248.01 338.36
  Q 248.02 331.17 246.67 327.29
  Q 243.08 316.93 232.66 313.30
  Q 228.88 311.98 222.18 311.99
  Q 189.21 312.03 156.22 311.97
  Q 146.45 311.96 141.39 313.33
  C 124.87 317.79 118.29 329.55 112.24 345.39
  Z
  M 427.55 344.52
  L 411.44 367.21
  A 0.07 0.07 0.0 0 0 411.54 367.31
  Q 424.05 357.92 437.83 360.54
  C 459.31 364.64 470.55 387.84 460.13 407.26
  C 446.45 432.75 409.84 427.92 401.29 400.57
  Q 401.11 400.00 400.51 400.00
  L 385.26 400.00
  Q 384.69 400.00 384.80 400.56
  C 392.37 438.38 438.60 453.79 466.31 425.50
  C 481.88 409.61 484.70 383.73 471.84 365.20
  Q 456.46 343.05 428.33 344.09
  Q 427.84 344.11 427.55 344.52
  Z
  M 319.99 382.77
  C 319.64 375.42 313.94 368.11 305.99 368.02
  Q 293.77 367.88 266.02 368.05
  Q 265.46 368.05 265.67 368.57
  Q 269.82 378.54 279.16 382.23
  Q 283.25 383.84 291.07 383.98
  Q 305.14 384.22 319.15 383.69
  A 0.87 0.87 0.0 0 0 319.99 382.77
  Z
  M 432.98 384.25
  C 441.05 384.52 442.31 396.05 435.33 399.23
  C 431.63 400.91 423.45 399.90 418.86 400.06
  Q 418.10 400.09 418.57 400.69
  Q 427.15 411.55 438.86 406.33
  C 451.49 400.70 450.87 382.53 438.27 377.36
  Q 428.19 373.22 419.14 382.20
  Q 417.39 383.93 419.85 383.95
  Q 425.80 384.01 432.98 384.25
  Z
  M 400.72 384.05
  C 401.48 383.38 401.78 382.22 401.89 381.31
  Q 401.98 380.56 401.53 381.16
  L 399.92 383.31
  A 0.55 0.55 0.0 0 0 400.72 384.05
  Z
  M 214.70 400.44
  C 205.49 431.30 162.57 431.11 153.36 400.46
  Q 153.22 400.00 152.74 400.00
  L 137.21 400.00
  Q 136.56 400.00 136.71 400.63
  Q 142.80 426.74 165.72 436.23
  C 194.20 448.04 225.62 430.51 231.11 400.47
  Q 231.20 400.00 230.72 400.00
  L 215.28 400.00
  Q 214.83 400.00 214.70 400.44
  Z
  M 170.68 400.58
  C 177.07 410.66 190.70 409.78 197.32 400.61
  Q 197.76 400.00 197.01 400.00
  L 171.00 400.00
  Q 170.32 400.00 170.68 400.58
  Z"
/>
</svg>
