<svg width="12" height="12" viewBox="0 0 12 12" fill="none" xmlns="http://www.w3.org/2000/svg">
<path d="M3.5 11C3.225 11 2.9895 10.902 2.7935 10.706C2.5975 10.51 2.49967 10.2747 2.5 10C2.5 9.725 2.598 9.4895 2.794 9.2935C2.99 9.0975 3.22534 8.99967 3.5 9C3.775 9 4.0105 9.098 4.2065 9.294C4.4025 9.49 4.50034 9.72534 4.5 10C4.5 10.275 4.402 10.5105 4.206 10.7065C4.01 10.9025 3.77467 11.0003 3.5 11ZM8.5 11C8.225 11 7.9895 10.902 7.7935 10.706C7.5975 10.51 7.49967 10.2747 7.5 10C7.5 9.725 7.598 9.4895 7.794 9.2935C7.99 9.0975 8.22534 8.99967 8.5 9C8.775 9 9.0105 9.098 9.2065 9.294C9.4025 9.49 9.50034 9.72534 9.5 10C9.5 10.275 9.402 10.5105 9.206 10.7065C9.01 10.9025 8.77467 11.0003 8.5 11ZM3.075 3L4.275 5.5H7.775L9.15 3H3.075ZM2.6 2H9.975C10.1667 2 10.3125 2.0855 10.4125 2.2565C10.5125 2.4275 10.5167 2.60034 10.425 2.775L8.65 5.975C8.55834 6.14167 8.43534 6.27084 8.281 6.3625C8.12667 6.45417 7.958 6.5 7.775 6.5H4.05L3.5 7.5H9C9.14167 7.5 9.2605 7.548 9.3565 7.644C9.4525 7.74 9.50034 7.85867 9.5 8C9.5 8.14167 9.452 8.2605 9.356 8.3565C9.26 8.4525 9.14134 8.50034 9 8.5H3.5C3.125 8.5 2.84167 8.33533 2.65 8.006C2.45834 7.67667 2.45 7.34967 2.625 7.025L3.3 5.8L1.5 2H1C0.858335 2 0.739502 1.952 0.643502 1.856C0.547502 1.76 0.499668 1.64134 0.500002 1.5C0.500002 1.35834 0.548002 1.2395 0.644002 1.1435C0.740002 1.0475 0.858668 0.999668 1 1H1.8125C1.90417 1 1.99167 1.025 2.075 1.075C2.15834 1.125 2.22084 1.19584 2.2625 1.2875L2.6 2Z" fill="black"/>
</svg>
