<?xml version="1.0" encoding="UTF-8" standalone="no"?>
<!DOCTYPE svg PUBLIC "-//W3C//DTD SVG 1.1//EN" "http://www.w3.org/Graphics/SVG/1.1/DTD/svg11.dtd">
<svg xmlns="http://www.w3.org/2000/svg" version="1.1" viewBox="0.00 0.00 512.00 512.00">
<g stroke-width="2.00" fill="none" stroke-linecap="butt">
<path stroke="#1ead75" vector-effect="non-scaling-stroke" d="
  M 511.86 247.78
  Q 511.17 247.96 510.80 247.62
  Q 483.13 221.94 424.01 167.72"
/>
<path stroke="#99ddbe" vector-effect="non-scaling-stroke" d="
  M 424.01 167.72
  Q 421.04 162.03 416.60 157.40
  Q 412.71 153.35 398.70 139.49
  Q 391.24 132.11 387.45 130.03
  C 375.66 123.55 361.04 126.04 351.51 135.53
  Q 284.98 201.72 218.34 267.98
  Q 217.96 268.35 217.58 267.98
  Q 188.98 239.42 160.52 210.73
  C 148.15 198.28 128.97 198.71 116.87 210.88
  Q 105.78 222.04 94.79 233.29
  C 82.80 245.58 83.39 264.39 95.35 276.41
  Q 145.87 327.16 196.33 377.98
  Q 197.48 379.14 199.49 380.66
  Q 201.27 382.01 202.58 383.40"
/>
<path stroke="#1ead75" vector-effect="non-scaling-stroke" d="
  M 202.58 383.40
  L 322.37 503.27"
/>
<path stroke="#85d0b7" vector-effect="non-scaling-stroke" d="
  M 424.01 167.72
  Q 430.08 187.78 417.15 200.65
  Q 345.81 271.61 274.53 342.63
  C 262.91 354.21 250.39 368.20 239.00 378.76
  Q 223.73 392.92 202.58 383.40"
/>
</g>
<path fill="#32ba7c" d="
  M 251.39 0.00
  L 260.74 0.00
  C 397.96 3.22 506.63 111.22 511.86 247.78
  Q 511.17 247.96 510.80 247.62
  Q 483.13 221.94 424.01 167.72
  Q 421.04 162.03 416.60 157.40
  Q 412.71 153.35 398.70 139.49
  Q 391.24 132.11 387.45 130.03
  C 375.66 123.55 361.04 126.04 351.51 135.53
  Q 284.98 201.72 218.34 267.98
  Q 217.96 268.35 217.58 267.98
  Q 188.98 239.42 160.52 210.73
  C 148.15 198.28 128.97 198.71 116.87 210.88
  Q 105.78 222.04 94.79 233.29
  C 82.80 245.58 83.39 264.39 95.35 276.41
  Q 145.87 327.16 196.33 377.98
  Q 197.48 379.14 199.49 380.66
  Q 201.27 382.01 202.58 383.40
  L 322.37 503.27
  Q 291.65 511.31 260.61 512.00
  L 251.01 512.00
  C 176.01 510.16 105.49 476.24 58.45 418.79
  Q 2.52 350.49 0.00 260.63
  L 0.00 251.24
  Q 2.52 162.23 57.56 94.30
  C 104.69 36.11 175.75 1.73 251.39 0.00
  Z"
/>
<path fill="#ffffff" d="
  M 424.01 167.72
  Q 430.08 187.78 417.15 200.65
  Q 345.81 271.61 274.53 342.63
  C 262.91 354.21 250.39 368.20 239.00 378.76
  Q 223.73 392.92 202.58 383.40
  Q 201.27 382.01 199.49 380.66
  Q 197.48 379.14 196.33 377.98
  Q 145.87 327.16 95.35 276.41
  C 83.39 264.39 82.80 245.58 94.79 233.29
  Q 105.78 222.04 116.87 210.88
  C 128.97 198.71 148.15 198.28 160.52 210.73
  Q 188.98 239.42 217.58 267.98
  Q 217.96 268.35 218.34 267.98
  Q 284.98 201.72 351.51 135.53
  C 361.04 126.04 375.66 123.55 387.45 130.03
  Q 391.24 132.11 398.70 139.49
  Q 412.71 153.35 416.60 157.40
  Q 421.04 162.03 424.01 167.72
  Z"
/>
<path fill="#0aa06e" d="
  M 424.01 167.72
  Q 483.13 221.94 510.80 247.62
  Q 511.17 247.96 511.86 247.78
  Q 511.42 247.71 512.00 248.12
  L 512.00 266.99
  Q 508.01 343.37 464.45 404.70
  C 434.77 446.50 392.95 478.09 345.06 496.12
  Q 334.83 499.97 322.37 503.27
  L 202.58 383.40
  Q 223.73 392.92 239.00 378.76
  C 250.39 368.20 262.91 354.21 274.53 342.63
  Q 345.81 271.61 417.15 200.65
  Q 430.08 187.78 424.01 167.72
  Z"
/>
</svg>
