<?xml version="1.0" encoding="UTF-8" standalone="no"?>
<!DOCTYPE svg PUBLIC "-//W3C//DTD SVG 1.1//EN" "http://www.w3.org/Graphics/SVG/1.1/DTD/svg11.dtd">
<svg xmlns="http://www.w3.org/2000/svg" version="1.1" viewBox="0.00 0.00 512.00 512.00">
<path fill="#000000" d="
  M 512.00 124.84
  L 512.00 132.33
  C 510.07 177.72 483.86 216.94 441.64 234.19
  Q 441.04 234.43 441.04 235.08
  Q 441.04 351.98 441.04 468.25
  Q 441.04 474.51 439.72 477.55
  C 436.11 485.90 429.11 485.89 419.93 485.90
  Q 281.71 486.00 143.50 485.90
  Q 128.25 485.88 112.99 485.66
  Q 110.50 485.62 106.70 484.55
  Q 106.19 484.41 106.01 484.91
  Q 102.57 494.07 94.34 497.14
  Q 90.58 498.55 81.53 498.51
  Q 73.07 498.46 64.61 498.51
  Q 55.94 498.57 52.02 497.20
  Q 40.39 493.16 39.18 478.98
  Q 39.14 478.46 38.62 478.46
  C 30.97 478.35 21.05 479.26 14.73 477.42
  Q 2.21 473.76 0.00 459.18
  L 0.00 403.03
  Q 1.47 396.31 7.50 396.32
  C 13.57 396.34 15.01 401.24 15.02 406.66
  Q 15.06 430.76 15.03 454.88
  C 15.01 462.88 17.33 463.11 24.45 463.28
  Q 31.55 463.45 38.70 463.27
  Q 39.20 463.26 39.20 462.75
  L 39.20 359.75
  Q 39.20 359.26 38.71 359.23
  Q 26.20 358.67 20.75 359.13
  C 11.62 359.88 16.59 371.06 14.35 376.57
  C 11.33 384.00 1.31 381.85 0.00 374.19
  L 0.00 363.20
  Q 2.14 349.12 14.09 345.22
  C 20.59 343.10 30.80 344.07 38.65 343.99
  Q 39.15 343.99 39.19 343.49
  Q 40.35 329.29 52.15 325.20
  Q 55.88 323.91 63.46 323.97
  Q 72.43 324.04 81.38 323.97
  Q 90.09 323.90 93.99 325.24
  Q 105.48 329.18 106.89 343.01
  Q 106.94 343.55 107.44 343.34
  Q 115.21 340.08 119.19 332.46
  Q 125.93 319.54 132.48 306.51
  Q 133.49 304.51 133.49 302.28
  Q 133.49 255.95 133.48 209.62
  C 133.48 203.19 135.20 198.53 140.85 195.76
  Q 143.56 194.43 148.86 194.44
  Q 226.11 194.55 303.34 194.41
  Q 304.04 194.41 303.64 193.84
  Q 289.10 172.82 284.67 148.20
  C 275.33 96.19 305.43 42.53 354.02 22.47
  Q 381.49 11.14 410.99 14.88
  C 418.91 15.89 420.40 26.70 412.81 29.31
  C 410.05 30.26 405.57 29.58 402.39 29.39
  C 350.57 26.21 304.76 65.85 298.96 117.12
  C 294.34 157.99 315.36 197.52 351.53 216.90
  C 394.62 239.99 449.26 225.84 477.91 187.65
  C 502.74 154.57 503.39 106.70 479.99 72.76
  Q 463.79 49.27 436.50 36.98
  C 429.26 33.72 431.17 22.50 439.37 22.65
  Q 441.28 22.68 444.44 24.08
  C 485.16 42.06 510.30 80.38 512.00 124.84
  Z
  M 381.72 299.71
  C 378.22 306.27 367.75 303.45 367.75 295.50
  Q 367.75 267.53 367.75 239.66
  A 0.98 0.97 -82.2 0 0 367.04 238.72
  Q 338.70 230.75 317.71 210.20
  A 2.49 2.47 -22.7 0 0 315.98 209.50
  L 302.50 209.50
  Q 301.93 209.50 301.93 210.06
  Q 301.93 242.04 301.92 274.02
  Q 301.92 279.81 300.97 282.14
  C 298.35 288.61 290.41 290.34 284.92 286.12
  Q 271.65 275.91 258.58 265.57
  Q 258.16 265.23 257.73 265.57
  Q 245.05 275.43 232.38 285.38
  Q 222.71 292.97 215.72 283.18
  C 214.54 281.53 214.32 277.90 214.32 275.89
  Q 214.32 242.91 214.33 210.17
  A 0.67 0.67 0.0 0 0 213.66 209.50
  L 149.01 209.50
  Q 148.53 209.50 148.53 209.99
  L 148.52 287.99
  Q 148.52 288.47 148.99 288.40
  C 166.43 285.64 178.53 305.72 177.14 320.92
  C 176.41 328.89 171.09 337.72 167.28 344.69
  A 0.35 0.35 0.0 0 0 167.59 345.21
  Q 213.50 345.18 259.50 345.20
  C 276.02 345.21 287.88 359.63 282.76 375.84
  Q 282.57 376.43 283.19 376.45
  C 293.24 376.73 300.20 376.80 306.92 384.08
  C 318.31 396.41 314.65 415.69 298.45 421.61
  Q 297.92 421.81 298.10 422.34
  C 302.04 433.88 298.35 445.43 287.89 451.43
  Q 282.84 454.33 277.24 454.36
  Q 263.68 454.43 250.08 454.47
  Q 249.45 454.48 249.65 455.07
  Q 252.19 462.64 249.53 470.16
  Q 249.31 470.79 249.97 470.79
  L 367.23 470.79
  Q 367.73 470.79 367.73 470.28
  Q 367.78 399.30 367.75 328.32
  C 367.74 324.31 368.42 320.97 372.08 319.33
  C 377.32 316.99 382.80 320.64 382.80 326.51
  Q 382.78 398.38 382.80 470.30
  Q 382.80 470.79 383.29 470.79
  L 425.48 470.79
  Q 426.00 470.79 426.00 470.27
  L 426.00 239.99
  A 0.45 0.44 -6.7 0 0 425.45 239.56
  Q 404.63 244.66 383.33 242.04
  Q 382.81 241.98 382.81 242.50
  Q 382.77 267.80 382.79 293.10
  Q 382.79 297.71 381.72 299.71
  Z
  M 249.22 253.12
  C 254.71 248.80 259.47 247.08 265.45 251.83
  Q 275.80 260.04 286.39 268.20
  Q 286.83 268.53 286.83 267.98
  L 286.82 210.04
  A 0.54 0.53 90.0 0 0 286.29 209.50
  L 229.96 209.50
  A 0.54 0.54 0.0 0 0 229.42 210.04
  L 229.42 267.96
  Q 229.42 268.55 229.89 268.19
  Q 239.66 260.63 249.22 253.12
  Z
  M 116.98 355.43
  C 114.15 357.07 110.74 358.01 107.44 359.15
  Q 106.88 359.35 106.88 359.95
  L 106.88 466.92
  Q 106.88 469.85 109.80 470.05
  Q 118.37 470.65 125.50 470.67
  Q 175.88 470.80 226.27 470.75
  C 231.87 470.75 236.62 467.58 235.52 461.31
  Q 234.34 454.54 225.73 454.51
  Q 211.25 454.44 196.77 454.45
  Q 193.30 454.45 191.79 453.93
  C 187.55 452.47 185.71 447.95 187.43 443.88
  C 189.05 440.02 192.51 439.38 196.64 439.38
  Q 235.45 439.34 274.25 439.32
  Q 277.66 439.32 279.20 438.80
  C 286.03 436.51 286.73 426.97 280.23 423.92
  Q 278.28 423.00 274.12 423.00
  Q 237.93 423.00 201.75 423.00
  C 191.51 422.99 191.55 407.95 201.75 407.95
  Q 246.12 407.97 290.50 407.74
  C 300.26 407.69 301.02 395.56 293.02 392.36
  Q 291.22 391.64 287.88 391.64
  Q 245.24 391.62 202.60 391.63
  C 192.08 391.63 191.99 376.53 202.75 376.54
  Q 230.59 376.55 258.43 376.52
  Q 262.55 376.52 264.44 375.62
  C 270.43 372.78 270.38 364.40 264.53 361.34
  Q 262.44 360.25 257.28 360.25
  Q 214.20 360.24 171.12 360.24
  C 163.47 360.25 157.07 359.59 153.59 352.94
  C 147.05 340.43 160.55 331.04 162.00 319.24
  Q 163.20 309.39 154.18 303.52
  C 152.61 302.50 150.86 303.62 150.05 305.22
  Q 144.06 317.16 137.93 329.02
  C 131.32 341.81 127.80 349.13 116.98 355.43
  Z
  M 91.79 343.50
  A 4.49 4.49 0.0 0 0 87.30 339.01
  L 58.74 339.01
  A 4.49 4.49 0.0 0 0 54.25 343.50
  L 54.25 478.96
  A 4.49 4.49 0.0 0 0 58.74 483.45
  L 87.30 483.45
  A 4.49 4.49 0.0 0 0 91.79 478.96
  L 91.79 343.50
  Z"
/>
<path fill="#000000" d="
  M 378.47 160.56
  Q 412.85 122.13 447.08 83.58
  C 450.92 79.26 457.48 80.17 459.85 85.30
  C 461.56 89.01 459.79 91.98 457.11 94.98
  Q 425.32 130.65 393.57 166.34
  Q 387.17 173.52 383.63 175.14
  C 375.54 178.82 369.62 174.38 364.05 168.07
  Q 350.61 152.83 337.11 137.65
  C 329.91 129.56 341.54 119.68 348.40 127.60
  Q 362.84 144.25 377.67 160.56
  Q 378.07 161.00 378.47 160.56
  Z"
/>
</svg>
