<?xml version="1.0" encoding="UTF-8" standalone="no"?>
<!DOCTYPE svg PUBLIC "-//W3C//DTD SVG 1.1//EN" "http://www.w3.org/Graphics/SVG/1.1/DTD/svg11.dtd">
<svg xmlns="http://www.w3.org/2000/svg" version="1.1" viewBox="0.00 0.00 512.00 512.00">
<path fill="#000000" d="
  M 22.30 0.00
  L 337.82 0.00
  Q 346.56 1.99 346.54 10.24
  Q 346.49 30.75 346.52 51.20
  A 0.48 0.48 0.0 0 0 346.99 51.68
  Q 364.50 51.72 382.12 51.67
  Q 389.68 51.65 392.23 52.74
  Q 397.90 55.16 397.90 62.75
  Q 397.89 138.73 397.77 214.70
  C 397.75 228.38 377.90 228.49 377.90 214.25
  Q 377.89 143.12 377.90 72.09
  Q 377.90 71.69 377.50 71.69
  L 85.26 71.69
  Q 84.90 71.69 84.90 72.05
  L 84.89 491.45
  Q 84.89 492.00 85.45 492.00
  L 177.71 492.00
  Q 178.22 492.00 178.07 491.52
  Q 165.82 450.08 153.57 408.65
  Q 149.51 394.94 149.28 393.30
  C 147.73 382.17 152.94 370.21 162.39 364.08
  Q 166.24 361.58 177.60 358.22
  Q 302.62 321.23 427.63 284.20
  Q 437.03 281.42 441.59 281.48
  C 454.66 281.65 465.74 290.28 469.51 302.86
  Q 482.66 346.74 495.66 390.66
  Q 498.23 399.37 498.42 403.01
  C 498.94 413.20 493.73 423.57 485.36 429.21
  Q 481.38 431.89 469.89 435.30
  Q 434.21 445.91 398.43 456.43
  Q 397.94 456.58 397.93 457.09
  Q 397.80 479.18 397.93 501.25
  Q 397.98 509.97 389.14 512.00
  L 73.64 512.00
  Q 64.85 510.00 64.87 501.25
  Q 64.91 481.00 64.88 460.77
  A 0.48 0.47 90.0 0 0 64.41 460.29
  Q 45.44 460.35 26.39 460.28
  C 16.69 460.25 13.51 456.57 13.51 447.28
  Q 13.53 230.86 13.51 14.44
  C 13.51 6.80 14.36 1.74 22.30 0.00
  Z
  M 64.89 63.78
  C 64.89 56.97 67.95 51.63 75.50 51.63
  Q 200.78 51.69 326.04 51.70
  A 0.47 0.47 0.0 0 0 326.51 51.23
  L 326.52 20.51
  Q 326.52 20.00 326.01 20.00
  L 34.02 20.00
  A 0.49 0.49 0.0 0 0 33.53 20.49
  L 33.53 439.79
  Q 33.53 440.31 34.04 440.31
  L 64.45 440.32
  Q 64.88 440.32 64.88 439.88
  Q 64.90 251.83 64.89 63.78
  Z
  M 450.5009 308.6003
  A 9.91 9.91 0.0 0 0 438.1844 301.9130
  L 176.1198 379.5401
  A 9.91 9.91 0.0 0 0 169.4325 391.8566
  L 196.9991 484.9197
  A 9.91 9.91 0.0 0 0 209.3156 491.6070
  L 471.3802 413.9799
  A 9.91 9.91 0.0 0 0 478.0675 401.6634
  L 450.5009 308.6003
  Z
  M 377.30 462.73
  L 279.91 491.52
  A 0.24 0.24 0.0 0 0 279.98 491.99
  L 377.55 492.00
  A 0.35 0.35 0.0 0 0 377.90 491.65
  L 377.89 463.18
  Q 377.89 462.56 377.30 462.73
  Z"
/>
<path fill="#000000" d="
  M 169.76 197.31
  C 168.01 209.54 151.88 209.75 149.81 197.52
  Q 149.73 197.00 149.20 197.00
  C 144.39 197.01 138.06 197.73 134.11 195.68
  C 126.71 191.83 127.38 180.88 135.11 177.75
  Q 136.93 177.01 140.47 177.01
  Q 152.82 177.00 165.14 176.99
  C 168.34 176.99 170.51 176.23 170.64 172.75
  Q 170.79 168.61 170.68 165.00
  A 3.72 3.71 -1.0 0 0 166.94 161.40
  C 159.86 161.46 151.13 162.14 144.87 159.90
  C 134.28 156.11 129.03 147.17 128.87 136.10
  C 128.82 132.24 128.64 127.96 129.66 124.38
  Q 133.87 109.67 149.51 106.49
  Q 150.00 106.39 149.99 105.89
  C 149.62 90.54 170.28 90.38 170.05 105.79
  Q 170.04 106.36 170.60 106.34
  C 175.29 106.24 182.06 105.48 185.99 107.92
  C 195.09 113.57 190.30 126.22 179.77 126.27
  Q 166.05 126.34 152.82 126.30
  A 3.96 3.95 90.0 0 0 148.86 130.27
  L 148.87 137.66
  A 3.72 3.72 0.0 0 0 152.52 141.37
  C 159.17 141.50 167.26 140.60 173.15 142.37
  C 188.15 146.87 192.24 159.98 190.52 174.97
  C 189.19 186.47 181.85 194.42 170.31 196.73
  Q 169.83 196.83 169.76 197.31
  Z"
/>
<rect fill="#000000" x="-56.04" y="-9.99" transform="translate(283.08,113.26) rotate(-0.1)" width="112.08" height="19.98" rx="9.80"/>
<rect fill="#000000" x="227.02" y="141.69" width="112.12" height="19.98" rx="9.79"/>
<rect fill="#000000" x="-56.04" y="-9.99" transform="translate(283.07,190.00) rotate(0.1)" width="112.08" height="19.98" rx="9.80"/>
<path fill="#000000" d="
  M 339.22 279.92
  A 10.12 10.12 0.0 0 1 329.10 290.04
  L 138.98 290.04
  A 10.12 10.12 0.0 0 1 128.86 279.92
  L 128.86 238.38
  A 10.12 10.12 0.0 0 1 138.98 228.26
  L 329.10 228.26
  A 10.12 10.12 0.0 0 1 339.22 238.38
  L 339.22 279.92
  Z
  M 319.22 248.61
  A 0.30 0.30 0.0 0 0 318.92 248.31
  L 149.16 248.31
  A 0.30 0.30 0.0 0 0 148.86 248.61
  L 148.86 269.75
  A 0.30 0.30 0.0 0 0 149.16 270.05
  L 318.92 270.05
  A 0.30 0.30 0.0 0 0 319.22 269.75
  L 319.22 248.61
  Z"
/>
<circle fill="#000000" cx="387.88" cy="261.00" r="9.95"/>
<rect fill="#000000" x="-35.60" y="-9.99" transform="translate(166.68,324.40) rotate(-0.1)" width="71.20" height="19.98" rx="9.70"/>
<path fill="#000000" d="
  M 377.03 349.62
  A 10.51 10.51 0.0 0 1 384.12 336.55
  L 406.20 330.01
  A 27.08 27.06 73.5 0 1 439.84 348.29
  L 447.41 373.84
  A 27.08 27.06 73.5 0 1 429.15 407.49
  L 407.07 414.03
  A 10.51 10.51 0.0 0 1 394.01 406.93
  L 377.03 349.62
  Z
  M 399.12 353.61
  L 410.37 391.60
  A 0.55 0.55 0.0 0 0 411.05 391.97
  L 423.55 388.27
  A 7.01 6.89 73.5 0 0 428.17 379.59
  L 420.59 353.99
  A 7.01 6.89 73.5 0 0 411.99 349.23
  L 399.49 352.93
  A 0.55 0.55 0.0 0 0 399.12 353.61
  Z"
/>
<rect fill="#000000" x="-9.99" y="-40.21" transform="translate(356.58,386.84) rotate(-16.6)" width="19.98" height="80.42" rx="9.77"/>
<path fill="#000000" d="
  M 292.44 436.80
  Q 292.38 442.77 291.40 444.53
  C 285.78 454.61 271.34 450.64 272.24 439.50
  Q 274.72 408.83 277.20 378.17
  Q 277.63 372.71 278.82 370.56
  C 282.30 364.21 291.41 364.35 295.79 369.97
  Q 315.04 394.65 334.35 419.28
  Q 336.86 422.46 337.36 425.12
  C 338.64 431.79 333.35 437.65 326.66 436.90
  C 321.44 436.31 319.98 432.92 316.81 429.47
  Q 316.48 429.11 316.01 429.25
  L 292.99 436.06
  A 0.77 0.76 82.0 0 0 292.44 436.80
  Z
  M 294.34 414.40
  A 0.30 0.30 0.0 0 0 294.72 414.71
  L 302.90 412.25
  A 0.30 0.30 0.0 0 0 303.05 411.78
  L 295.83 402.56
  A 0.30 0.30 0.0 0 0 295.29 402.72
  L 294.34 414.40
  Z"
/>
<path fill="#000000" d="
  M 226.61 439.47
  Q 228.15 445.33 229.97 451.12
  Q 231.78 456.91 231.53 459.55
  C 230.70 468.21 219.62 471.43 214.03 464.74
  Q 212.74 463.21 211.74 459.84
  Q 203.84 433.26 195.98 406.68
  Q 194.21 400.67 194.85 397.68
  Q 196.01 392.36 202.01 390.57
  Q 214.36 386.87 226.75 383.29
  Q 228.70 382.72 232.44 382.78
  C 258.86 383.18 268.40 417.94 245.97 432.05
  C 240.85 435.27 233.34 436.93 227.02 438.77
  Q 226.47 438.92 226.61 439.47
  Z
  M 217.06 407.46
  L 220.57 419.31
  A 0.50 0.50 0.0 0 0 221.20 419.65
  L 233.68 415.95
  A 6.80 6.56 -16.5 0 0 238.34 407.73
  L 238.27 407.50
  A 6.80 6.56 -16.5 0 0 229.88 403.14
  L 217.40 406.84
  A 0.50 0.50 0.0 0 0 217.06 407.46
  Z"
/>
</svg>
