<svg width="12" height="12" viewBox="0 0 12 12" fill="none" xmlns="http://www.w3.org/2000/svg">
<path d="M8.73 2.5C8.7 2.945 8.625 3.38 8.505 3.795L9.105 4.395C9.31 3.795 9.44 3.16 9.485 2.5H8.73ZM3.8 8.51C3.375 8.63 2.94 8.705 2.5 8.735V9.48C3.16 9.435 3.795 9.305 4.4 9.105L3.8 8.51ZM8.25 1.5H10C10.275 1.5 10.5 1.725 10.5 2C10.5 6.695 6.695 10.5 2 10.5C1.725 10.5 1.5 10.275 1.5 10V8.255C1.5 7.98 1.725 7.755 2 7.755C2.62 7.755 3.225 7.655 3.785 7.47C3.835 7.45 3.89 7.445 3.94 7.445C4.07 7.445 4.195 7.495 4.295 7.59L5.395 8.69C6.81 7.965 7.97 6.81 8.69 5.395L7.59 4.295C7.45 4.155 7.41 3.96 7.465 3.785C7.65 3.225 7.75 2.625 7.75 2C7.75 1.725 7.975 1.5 8.25 1.5Z" fill="black"/>
</svg>
