<svg width="200" height="200" viewBox="0 0 200 200" fill="none" xmlns="http://www.w3.org/2000/svg">
<path d="M28.4944 57C28.7339 58.0611 28.4944 57 28.7144 57.97L31.7644 72.26C24.3944 88.36 28.5244 106.89 36.7144 121.36C41.9544 130.613 49.4811 140.893 59.2944 152.2C42.6944 142.693 29.1578 131.01 18.6844 117.15C2.11442 95.24 4.39442 71.55 28.4944 57Z" fill="#C0C0C0"/>
<path d="M190.454 86.7592C190.14 86.6992 189.894 86.7625 189.714 86.9492C189.48 87.1892 189.437 87.4292 189.584 87.6692C186.064 76.1592 178.484 69.5092 168.974 62.4892C157.274 39.1692 132.414 32.3692 108.074 34.0992C81.2136 35.9992 51.9196 43.82 28.4996 57.5C28.3627 57.579 28.0786 57.8631 27.9996 58C27.9206 58.1369 28.4995 57.8419 28.4996 58C28.4929 58.4467 28.632 58.7467 28.4987 59C28.1454 58.96 28.8836 58.4108 27.9988 57.5C28.5488 51.28 26.9036 45.7692 29.6436 39.2192C36.1836 23.5592 53.9836 17.5492 69.3436 15.9992C108.994 11.9992 192.364 17.7492 191.584 75.7292C191.534 79.1392 190.844 83.0792 190.454 86.7592Z" fill="#C4C4C4" fill-opacity="0.76"/>
<path d="M30.8592 72.3398C30.8192 72.3265 30.7825 72.3131 30.7492 72.2998C36.0292 86.7265 43.5925 100.313 53.4392 113.06C54.9459 115.013 56.4059 116.38 57.8192 117.16L58.7992 118.22C58.7525 118.46 58.7325 118.683 58.7392 118.89C58.7459 119.09 58.8259 119.29 58.9792 119.49C83.3192 151.36 118.769 168.98 155.069 140.54C157.743 138.446 160.486 136.34 163.299 134.22C150.809 160.06 126.159 176.11 96.7392 169.52C86.7192 167.266 75.2925 162.573 62.4592 155.44L58.3892 152.28C48.5759 140.973 41.0492 130.693 35.8092 121.44C27.6192 106.97 23.4892 88.4398 30.8592 72.3398Z" fill="#D9D9D9" fill-opacity="0.94"/>
<path d="M65.5105 84.4401C71.6905 83.4501 84.5005 82.9501 87.0905 91.2201C89.0405 97.4401 82.6005 102.05 77.0405 102.61C74.7338 102.843 70.8705 102.86 65.4505 102.66C65.0105 102.647 64.7838 102.42 64.7705 101.98L64.7405 100.84C64.7272 100.38 64.9505 100.14 65.4105 100.12C70.4205 99.8401 78.7705 101.31 82.3405 96.7901C86.4105 91.6201 80.5305 87.0601 75.0705 87.0401C71.9038 87.0334 68.7505 86.92 65.6105 86.7C65.3337 86.6776 65.0746 86.5549 64.8818 86.355C64.689 86.1551 64.5759 85.8916 64.5636 85.6142C64.5513 85.3367 64.6408 85.0643 64.8151 84.8481C64.9895 84.6319 65.2367 84.4868 65.5105 84.4401Z" fill="#565656"/>
<path d="M113.24 100.78L127 84.5402C127.179 84.3277 127.412 84.1667 127.676 84.0736C127.94 83.9805 128.224 83.9586 128.5 84.0102C129.827 84.2569 130.293 84.9769 129.9 86.1702C129.793 86.4902 129.63 86.7802 129.41 87.0402L114.64 104.66C114.413 104.932 114.128 105.151 113.807 105.302C113.485 105.452 113.134 105.53 112.779 105.53C112.423 105.53 112.072 105.452 111.749 105.302C111.426 105.151 111.14 104.932 110.91 104.66C106.023 98.8469 101.387 93.2935 97.0001 88.0002C96.2401 87.0869 95.7101 86.2602 95.4101 85.5202C95.3269 85.317 95.3218 85.0903 95.3956 84.8836C95.4694 84.6768 95.6171 84.5047 95.8101 84.4002C97.0168 83.7535 98.2235 84.1435 99.4301 85.5702C103.73 90.6502 108.047 95.7202 112.38 100.78C112.667 101.114 112.953 101.114 113.24 100.78Z" fill="#565656"/>
<path d="M142.8 84.1401H141.54C140.828 84.1401 140.25 84.7177 140.25 85.4301V117.23C140.25 117.943 140.828 118.52 141.54 118.52H142.8C143.512 118.52 144.09 117.943 144.09 117.23V85.4301C144.09 84.7177 143.512 84.1401 142.8 84.1401Z" fill="#565656"/>
<path d="M165.235 84.0201L148.235 84.0795C147.445 84.0822 146.807 84.7247 146.81 85.5145L146.81 85.5945C146.813 86.3842 147.455 87.0222 148.245 87.0195L165.245 86.9601C166.035 86.9574 166.673 86.3149 166.67 85.5251L166.67 85.4451C166.667 84.6554 166.024 84.0174 165.235 84.0201Z" fill="#565656"/>
<path d="M58.7991 118.22L57.8191 117.16L57.7891 84.98C57.7878 84.8846 57.8055 84.7899 57.841 84.7014C57.8766 84.6129 57.9295 84.5323 57.9964 84.4644C58.0634 84.3965 58.1433 84.3426 58.2313 84.3057C58.3193 84.2689 58.4137 84.25 58.5091 84.25H60.9391C61.2191 84.25 61.3658 84.39 61.3791 84.67C61.8325 95.3833 61.8958 106.103 61.5691 116.83C61.5425 117.63 61.3358 118.173 60.9491 118.46C60.3825 118.887 59.6658 118.807 58.7991 118.22Z" fill="#565656"/>
<path d="M188.931 84.7499C190.541 95.9899 191.561 102.25 190.391 111.25C186.871 138.54 168.391 167.75 143.261 180.23C111.101 196.22 80.16 174.86 58.5 152.4C71.3333 159.533 84.7209 166.267 94.7409 168.52C124.161 175.11 150.51 160.34 163 134.5L165 131.5C176.01 120.19 186.201 101.37 188.061 85.6599C187.914 85.4199 187.958 85.1799 188.191 84.9399C188.371 84.7533 188.618 84.6899 188.931 84.7499Z" fill="#AEAEAE" fill-opacity="0.9"/>
<path d="M168 60C177.51 67.02 186.3 75.67 189.82 87.18C187.96 102.89 174.01 123.19 163 134.5C172.6 113.5 178.43 84.43 169.36 62.6C169.253 62.54 167.993 60.34 168 60Z" fill="#C7C7C7"/>
<path d="M97.3903 93.04H97.0103C96.077 93.04 95.3203 93.7967 95.3203 94.73V116.95C95.3203 117.883 96.077 118.64 97.0103 118.64H97.3903C98.3237 118.64 99.0803 117.883 99.0803 116.95V94.73C99.0803 93.7967 98.3237 93.04 97.3903 93.04Z" fill="#565656"/>
<path d="M169.451 61.4798C169.444 61.8198 169.494 62.0198 169.601 62.0798C168.481 61.0598 167.301 60.4598 166.061 60.2798C165.734 60.2332 165.434 60.1132 165.161 59.9198C162.061 57.6798 159.591 56.2798 157.751 55.7198C126.351 46.0498 92.8105 46.0698 61.0005 53.7098C54.2005 55.3498 47.7172 58.1332 41.5505 62.0598C37.4005 64.7098 34.1405 68.5798 30.7505 72.2998C30.7839 72.3132 30.8205 72.3265 30.8605 72.3398L28 58C28 57.5 28.0139 57.4465 28.0205 56.9998C28.0252 56.6881 28.062 56.6864 28.141 56.5495C28.22 56.4126 28.3336 56.2989 28.4705 56.2198C51.8905 42.5398 81.6905 34.9898 108.551 33.0898C132.891 31.3598 157.751 38.1598 169.451 61.4798Z" fill="#C0C0C0"/>
<path d="M169.6 62.0799C178.5 83 174.84 110.41 165.24 131.41L163.3 134.22C160.487 136.34 157.743 138.447 155.07 140.54C118.77 168.98 83.32 151.36 58.98 119.49C58.8267 119.29 58.7467 119.09 58.74 118.89C58.7333 118.683 58.7533 118.46 58.8 118.22C59.6667 118.807 60.3833 118.887 60.95 118.46C61.3367 118.173 61.5433 117.63 61.57 116.83C61.8967 106.103 61.8333 95.3832 61.38 84.6699C61.3667 84.3899 61.22 84.2499 60.94 84.2499H58.51C58.4146 84.2499 58.3202 84.2688 58.2321 84.3056C58.1441 84.3425 58.0643 84.3964 57.9973 84.4643C57.9303 84.5322 57.8775 84.6128 57.8419 84.7013C57.8063 84.7898 57.7887 84.8845 57.79 84.9799L57.82 117.16C56.4067 116.38 54.9467 115.013 53.44 113.06C43.5933 100.313 36.03 86.7266 30.75 72.2999C34.14 68.5799 37.4 64.7099 41.55 62.0599C47.7167 58.1332 54.2 55.3499 61 53.7099C92.81 46.0699 126.35 46.0499 157.75 55.7199C159.59 56.2799 162 57 165.5 59C165.773 59.1933 165.5 59 166.5 59.5C168.5 61 166.67 59.5 169.6 62.0799ZM87.09 91.2199C84.5 82.9499 71.69 83.4499 65.51 84.4399C65.2362 84.4867 64.989 84.6318 64.8146 84.848C64.6403 85.0641 64.5508 85.3365 64.5631 85.614C64.5754 85.8915 64.6885 86.1549 64.8813 86.3548C65.0741 86.5548 65.3332 86.6775 65.61 86.6999C68.75 86.9199 71.9033 87.0332 75.07 87.0399C80.53 87.0599 86.41 91.6199 82.34 96.7899C78.77 101.31 70.42 99.8399 65.41 100.12C64.95 100.14 64.7267 100.38 64.74 100.84L64.77 101.98C64.7833 102.42 65.01 102.647 65.45 102.66C70.87 102.86 74.7333 102.843 77.04 102.61C82.6 102.05 89.04 97.4399 87.09 91.2199ZM112.38 100.78C108.047 95.7199 103.73 90.6499 99.43 85.5699C98.2233 84.1432 97.0167 83.7532 95.81 84.3999C95.6169 84.5044 95.4693 84.6765 95.3955 84.8833C95.3216 85.09 95.3268 85.3167 95.41 85.5199C95.71 86.2599 96.24 87.0866 97 87.9999C101.387 93.2932 106.023 98.8466 110.91 104.66C111.14 104.932 111.426 105.151 111.749 105.301C112.072 105.451 112.423 105.529 112.779 105.529C113.134 105.529 113.485 105.451 113.806 105.301C114.128 105.151 114.413 104.932 114.64 104.66L129.41 87.0399C129.63 86.7799 129.793 86.4899 129.9 86.1699C130.293 84.9766 129.827 84.2566 128.5 84.0099C128.224 83.9583 127.939 83.9802 127.676 84.0733C127.412 84.1664 127.179 84.3274 127 84.5399L113.24 100.78C112.953 101.113 112.667 101.113 112.38 100.78ZM144.09 85.4299C144.09 85.0878 143.954 84.7596 143.712 84.5177C143.47 84.2758 143.142 84.1399 142.8 84.1399H141.54C141.198 84.1399 140.87 84.2758 140.628 84.5177C140.386 84.7596 140.25 85.0878 140.25 85.4299V117.23C140.25 117.572 140.386 117.9 140.628 118.142C140.87 118.384 141.198 118.52 141.54 118.52H142.8C143.142 118.52 143.47 118.384 143.712 118.142C143.954 117.9 144.09 117.572 144.09 117.23V85.4299ZM166.67 85.4452C166.669 85.2574 166.632 85.0716 166.559 84.8983C166.487 84.7251 166.381 84.5678 166.247 84.4355C166.114 84.3032 165.956 84.1984 165.782 84.1271C165.609 84.0559 165.423 84.0195 165.235 84.0202L148.235 84.0796C148.047 84.0802 147.861 84.1179 147.688 84.1904C147.515 84.2628 147.358 84.3687 147.225 84.502C147.093 84.6352 146.988 84.7932 146.917 84.967C146.846 85.1407 146.809 85.3268 146.81 85.5146L146.81 85.5946C146.811 85.7824 146.848 85.9682 146.921 86.1415C146.993 86.3147 147.099 86.472 147.233 86.6043C147.366 86.7366 147.524 86.8414 147.698 86.9127C147.871 86.9839 148.057 87.0203 148.245 87.0196L165.245 86.9602C165.433 86.9595 165.619 86.9219 165.792 86.8494C165.965 86.777 166.122 86.6711 166.255 86.5378C166.387 86.4046 166.492 86.2466 166.563 86.0728C166.634 85.8991 166.671 85.713 166.67 85.5252L166.67 85.4452ZM99.08 94.7299C99.08 94.2817 98.9019 93.8518 98.585 93.5349C98.2681 93.2179 97.8382 93.0399 97.39 93.0399H97.01C96.5618 93.0399 96.1319 93.2179 95.815 93.5349C95.4981 93.8518 95.32 94.2817 95.32 94.7299V116.95C95.32 117.398 95.4981 117.828 95.815 118.145C96.1319 118.462 96.5618 118.64 97.01 118.64H97.39C97.8382 118.64 98.2681 118.462 98.585 118.145C98.9019 117.828 99.08 117.398 99.08 116.95V94.7299ZM130.24 94.1999C130.24 93.8949 130.119 93.6024 129.903 93.3867C129.688 93.1711 129.395 93.0499 129.09 93.0499H127.65C127.345 93.0499 127.052 93.1711 126.837 93.3867C126.621 93.6024 126.5 93.8949 126.5 94.1999V117.38C126.5 117.685 126.621 117.977 126.837 118.193C127.052 118.409 127.345 118.53 127.65 118.53H129.09C129.395 118.53 129.688 118.409 129.903 118.193C130.119 117.977 130.24 117.685 130.24 117.38V94.1999ZM160.99 101.35C160.99 101.177 160.956 101.005 160.89 100.845C160.823 100.685 160.726 100.539 160.603 100.417C160.481 100.294 160.335 100.197 160.175 100.13C160.015 100.064 159.843 100.03 159.67 100.03H148.11C147.76 100.03 147.424 100.169 147.177 100.417C146.929 100.664 146.79 101 146.79 101.35V101.43C146.79 101.78 146.929 102.116 147.177 102.363C147.424 102.611 147.76 102.75 148.11 102.75H159.67C159.843 102.75 160.015 102.716 160.175 102.649C160.335 102.583 160.481 102.486 160.603 102.363C160.726 102.241 160.823 102.095 160.89 101.935C160.956 101.775 160.99 101.603 160.99 101.43V101.35ZM166.64 117.197C166.64 117.016 166.605 116.836 166.536 116.669C166.467 116.501 166.366 116.349 166.238 116.221C166.11 116.092 165.958 115.99 165.79 115.921C165.623 115.851 165.444 115.815 165.262 115.815L148.163 115.785C147.981 115.785 147.802 115.82 147.634 115.889C147.467 115.958 147.314 116.06 147.186 116.187C147.058 116.315 146.956 116.467 146.886 116.635C146.816 116.802 146.78 116.981 146.78 117.163L146.78 117.263C146.78 117.444 146.815 117.623 146.884 117.791C146.953 117.958 147.054 118.111 147.182 118.239C147.31 118.367 147.462 118.469 147.63 118.539C147.797 118.609 147.976 118.645 148.158 118.645L165.258 118.675C165.439 118.675 165.618 118.64 165.786 118.571C165.953 118.502 166.106 118.4 166.234 118.272C166.362 118.144 166.464 117.992 166.534 117.825C166.604 117.658 166.64 117.478 166.64 117.297L166.64 117.197Z" fill="white"/>
<path d="M129.09 93.0498H127.65C127.015 93.0498 126.5 93.5647 126.5 94.1998V117.38C126.5 118.015 127.015 118.53 127.65 118.53H129.09C129.725 118.53 130.24 118.015 130.24 117.38V94.1998C130.24 93.5647 129.725 93.0498 129.09 93.0498Z" fill="#565656"/>
<path d="M159.669 100.03H148.109C147.38 100.03 146.789 100.621 146.789 101.35V101.43C146.789 102.159 147.38 102.75 148.109 102.75H159.669C160.398 102.75 160.989 102.159 160.989 101.43V101.35C160.989 100.621 160.398 100.03 159.669 100.03Z" fill="#565656"/>
<path d="M165.263 115.815L148.163 115.785C147.401 115.784 146.782 116.401 146.781 117.163L146.781 117.263C146.779 118.025 147.396 118.644 148.158 118.645L165.258 118.675C166.02 118.676 166.639 118.06 166.641 117.297L166.641 117.197C166.642 116.435 166.025 115.816 165.263 115.815Z" fill="#565656"/>
</svg>
