<?xml version="1.0" encoding="UTF-8" standalone="no"?>
<!DOCTYPE svg PUBLIC "-//W3C//DTD SVG 1.1//EN" "http://www.w3.org/Graphics/SVG/1.1/DTD/svg11.dtd">
<svg xmlns="http://www.w3.org/2000/svg" version="1.1" viewBox="0.00 0.00 512.00 512.00">
<path fill="#000000" d="
  M 259.82 0.00
  L 272.10 0.00
  C 285.77 0.76 298.79 2.65 312.10 6.88
  Q 340.51 15.93 370.29 31.01
  Q 418.91 55.64 453.33 94.66
  Q 467.81 111.08 478.76 128.75
  C 521.67 197.92 517.02 286.17 487.68 360.12
  Q 470.17 404.28 440.03 438.29
  C 399.21 484.36 343.27 509.22 280.98 512.00
  L 267.64 512.00
  Q 249.62 511.11 236.50 508.73
  C 208.53 503.67 179.64 493.20 152.31 483.19
  Q 131.00 475.39 110.87 464.91
  C 68.55 442.87 33.88 405.70 18.19 360.46
  C 4.01 319.57 -2.79 275.31 5.06 232.77
  Q 12.10 194.62 25.32 158.22
  Q 29.03 147.98 32.86 139.71
  Q 75.52 47.46 173.90 17.38
  C 200.63 9.21 230.29 2.09 259.82 0.00
  Z
  M 357.98 480.33
  C 442.42 444.95 491.01 351.70 496.32 263.76
  Q 499.52 210.78 479.47 162.47
  C 473.15 147.22 464.26 132.64 454.44 119.54
  Q 424.88 80.10 382.40 54.17
  Q 348.04 33.19 309.95 20.03
  Q 281.35 10.15 251.27 11.19
  Q 243.75 11.45 234.87 13.41
  C 203.95 20.24 171.91 29.16 143.17 42.66
  C 100.20 62.83 65.52 100.70 45.45 142.96
  Q 41.70 150.84 37.73 161.40
  Q 25.08 195.02 17.77 230.26
  C 9.66 269.31 14.79 310.02 26.89 347.75
  Q 30.26 358.26 33.89 366.48
  C 53.32 410.48 91.10 442.15 134.71 461.25
  Q 174.99 478.90 217.55 490.01
  C 264.96 502.39 313.01 499.18 357.98 480.33
  Z"
/>
<path fill="#000000" d="
  M 319.80 53.86
  C 361.69 69.82 401.30 98.63 424.08 137.92
  C 444.90 173.82 460.17 215.51 461.44 256.75
  Q 462.48 290.38 451.87 326.01
  C 430.20 398.77 373.70 470.94 291.53 475.21
  C 242.89 477.74 191.22 461.43 149.70 437.28
  C 118.82 419.31 92.58 392.49 76.82 360.24
  Q 56.63 318.95 50.23 274.01
  C 45.19 238.65 51.75 201.75 65.26 168.11
  Q 69.11 158.53 73.54 149.92
  Q 112.08 75.03 193.99 51.34
  Q 219.23 44.04 248.50 42.63
  Q 285.60 40.83 319.80 53.86
  Z
  M 189.69 443.84
  C 215.65 454.01 243.16 461.62 270.46 463.33
  Q 287.22 464.39 301.00 462.53
  C 339.43 457.33 373.97 434.47 397.83 404.50
  C 436.96 355.37 458.74 288.79 445.66 226.07
  Q 440.15 199.67 427.56 172.22
  C 419.19 153.96 409.58 135.96 396.63 121.11
  Q 376.42 97.93 347.55 80.41
  Q 287.81 44.14 218.03 54.60
  Q 208.92 55.96 202.12 57.17
  Q 194.10 58.60 186.57 61.33
  C 155.04 72.78 125.75 89.94 104.92 116.74
  Q 67.59 164.76 59.39 225.31
  C 55.32 255.31 60.06 286.41 69.11 316.22
  Q 79.01 348.82 95.65 373.12
  C 118.71 406.78 151.67 428.93 189.69 443.84
  Z"
/>
<path fill="#000000" d="
  M 204.03 104.52
  Q 203.18 104.93 202.44 105.46
  Q 191.26 113.47 180.31 127.30
  Q 177.73 130.55 173.57 130.79
  C 167.80 131.12 162.69 127.00 160.33 121.85
  C 153.60 107.16 168.00 96.15 179.18 89.90
  C 193.94 81.66 233.22 59.95 245.85 74.31
  Q 249.01 77.91 248.56 82.38
  C 247.40 93.91 230.34 96.82 221.53 98.62
  Q 212.42 100.49 204.03 104.52
  Z
  M 227.09 77.08
  C 210.14 81.36 192.54 89.15 177.35 99.10
  C 171.62 102.85 161.63 111.55 166.31 119.24
  C 168.95 123.58 174.05 124.62 177.63 120.61
  Q 187.03 110.12 195.64 103.37
  C 203.88 96.91 211.55 93.97 222.38 91.45
  C 228.33 90.07 240.06 87.23 240.52 80.73
  C 240.91 75.12 230.10 76.32 227.09 77.08
  Z"
/>
<path fill="#000000" d="
  M 295.3848 97.4525
  A 13.30 11.85 76.5 0 1 280.7574 87.2863
  A 13.30 11.85 76.5 0 1 289.1752 71.5875
  A 13.30 11.85 76.5 0 1 303.8026 81.7537
  A 13.30 11.85 76.5 0 1 295.3848 97.4525
  Z
  M 294.9085 90.7473
  A 7.64 6.50 63.0 0 0 297.2315 80.9891
  A 7.64 6.50 63.0 0 0 287.9715 77.1327
  A 7.64 6.50 63.0 0 0 285.6485 86.8909
  A 7.64 6.50 63.0 0 0 294.9085 90.7473
  Z"
/>
<path fill="#000000" d="
  M 278.37 139.58
  C 278.06 144.10 279.14 149.73 277.84 153.55
  C 273.87 165.29 247.80 166.47 243.48 155.24
  C 241.99 151.39 243.08 142.83 238.50 140.61
  C 234.77 138.81 230.64 140.12 227.02 137.59
  C 220.13 132.77 218.69 123.56 221.98 116.14
  C 226.62 105.70 239.87 98.71 250.75 96.99
  C 261.95 95.23 274.42 98.28 282.05 106.80
  C 287.32 112.67 290.70 121.75 287.28 129.36
  C 285.64 132.98 281.87 135.95 278.79 138.72
  Q 278.41 139.07 278.37 139.58
  Z
  M 270.62 134.87
  C 273.18 130.52 279.23 129.60 280.68 124.08
  C 283.20 114.46 272.77 107.41 264.44 105.47
  Q 246.24 101.23 232.59 113.65
  C 227.86 117.96 225.13 126.12 231.31 130.17
  C 235.32 132.80 241.21 131.32 244.38 135.60
  Q 248.12 140.63 248.05 146.98
  Q 248.02 149.98 248.74 151.40
  Q 250.83 155.49 255.51 155.54
  C 260.60 155.60 268.45 154.89 269.62 149.00
  C 270.44 144.90 267.77 139.70 270.62 134.87
  Z"
/>
<path fill="#000000" d="
  M 345.90 179.63
  C 327.09 182.53 306.94 168.69 306.14 148.47
  Q 306.01 145.24 307.05 139.59
  C 307.76 135.70 308.28 131.33 309.37 127.88
  Q 314.79 110.79 331.30 107.55
  C 354.53 102.99 375.06 122.76 376.07 145.27
  Q 376.84 162.19 364.13 171.97
  Q 356.24 178.04 345.90 179.63
  Z
  M 316.03 126.62
  C 311.27 136.48 309.64 150.21 315.54 159.76
  C 329.16 181.76 367.97 174.43 369.12 147.24
  C 369.57 136.64 363.09 126.45 354.59 120.54
  C 342.55 112.16 328.28 112.28 317.87 123.59
  C 317.09 124.43 316.52 125.59 316.03 126.62
  Z"
/>
<ellipse fill="#000000" cx="0.00" cy="0.00" transform="translate(335.53,129.73) rotate(27.8)" rx="3.79" ry="3.65"/>
<circle fill="#000000" cx="351.18" cy="131.00" r="2.87"/>
<path fill="#000000" d="
  M 169.48 138.34
  C 192.67 147.55 204.77 182.83 182.77 200.53
  C 167.59 212.75 145.36 211.41 132.32 196.95
  C 124.56 188.34 123.12 178.29 125.46 167.15
  Q 126.30 163.16 127.11 159.19
  Q 130.42 142.94 144.78 137.56
  Q 156.49 133.18 169.48 138.34
  Z
  M 132.92 158.95
  C 129.12 168.43 128.34 180.11 133.86 188.83
  C 144.82 206.13 172.30 205.63 183.30 188.65
  C 200.20 162.60 160.93 128.20 137.30 151.09
  C 134.87 153.44 134.19 155.77 132.92 158.95
  Z"
/>
<circle fill="#000000" cx="349.76" cy="141.88" r="3.49"/>
<ellipse fill="#000000" cx="0.00" cy="0.00" transform="translate(329.65,145.09) rotate(76.1)" rx="4.71" ry="4.46"/>
<circle fill="#000000" cx="353.17" cy="156.60" r="2.88"/>
<ellipse fill="#000000" cx="0.00" cy="0.00" transform="translate(153.70,158.59) rotate(26.0)" rx="3.79" ry="3.64"/>
<ellipse fill="#000000" cx="0.00" cy="0.00" transform="translate(339.67,159.65) rotate(-36.3)" rx="4.10" ry="3.56"/>
<circle fill="#000000" cx="169.34" cy="159.86" r="2.87"/>
<path fill="#000000" d="
  M 223.9450 187.0174
  A 13.29 11.86 76.4 0 1 209.2925 176.8888
  A 13.29 11.86 76.4 0 1 217.6950 161.1826
  A 13.29 11.86 76.4 0 1 232.3475 171.3112
  A 13.29 11.86 76.4 0 1 223.9450 187.0174
  Z
  M 223.4202 180.3304
  A 7.63 6.49 63.2 0 0 225.7729 170.5938
  A 7.63 6.49 63.2 0 0 216.5398 166.7096
  A 7.63 6.49 63.2 0 0 214.1871 176.4462
  A 7.63 6.49 63.2 0 0 223.4202 180.3304
  Z"
/>
<path fill="#000000" d="
  M 293.8725 193.0628
  A 13.29 11.86 76.5 0 1 279.2377 182.9087
  A 13.29 11.86 76.5 0 1 287.6675 167.2172
  A 13.29 11.86 76.5 0 1 302.3023 177.3713
  A 13.29 11.86 76.5 0 1 293.8725 193.0628
  Z
  M 293.4004 186.3612
  A 7.64 6.50 62.9 0 0 295.7064 176.5990
  A 7.64 6.50 62.9 0 0 286.4396 172.7588
  A 7.64 6.50 62.9 0 0 284.1336 182.5210
  A 7.64 6.50 62.9 0 0 293.4004 186.3612
  Z"
/>
<circle fill="#000000" cx="167.92" cy="170.74" r="3.50"/>
<ellipse fill="#000000" cx="0.00" cy="0.00" transform="translate(147.80,173.94) rotate(75.6)" rx="4.70" ry="4.46"/>
<path fill="#000000" d="
  M 410.75 215.87
  C 409.83 229.56 408.79 261.54 393.68 268.13
  C 385.46 271.72 379.62 266.19 377.99 258.50
  C 376.74 252.58 379.84 243.65 382.49 235.73
  Q 384.76 228.90 385.56 221.83
  Q 386.32 215.17 384.94 207.77
  Q 383.22 198.56 379.84 189.81
  Q 377.56 183.94 377.68 181.45
  C 378.01 174.50 385.74 170.68 392.07 171.03
  C 413.25 172.17 411.75 201.01 410.75 215.87
  Z
  M 401.33 184.95
  Q 398.96 178.29 393.13 177.62
  Q 389.39 177.20 386.86 179.35
  Q 383.76 181.99 385.28 186.76
  Q 389.49 200.08 390.92 208.23
  Q 392.73 218.48 391.19 228.61
  C 389.91 237.04 381.38 253.92 388.34 261.18
  A 1.42 1.37 71.6 0 0 389.13 261.59
  C 396.42 262.76 400.00 246.24 401.13 240.27
  Q 405.05 219.44 404.13 198.25
  Q 403.86 192.06 401.33 184.95
  Z"
/>
<circle fill="#000000" cx="171.32" cy="185.43" r="2.89"/>
<ellipse fill="#000000" cx="0.00" cy="0.00" transform="translate(157.83,188.50) rotate(-35.5)" rx="4.10" ry="3.56"/>
<path fill="#000000" d="
  M 101.42 188.67
  C 107.74 188.24 112.29 192.99 113.12 199.06
  C 114.16 206.60 111.19 214.57 108.74 221.77
  Q 106.33 228.81 105.54 236.13
  Q 104.81 242.97 106.27 250.67
  Q 107.95 259.48 111.14 267.86
  Q 113.43 273.89 113.30 276.38
  C 112.96 283.34 105.22 287.10 98.88 286.75
  C 84.70 285.94 80.43 271.87 80.14 260.15
  C 79.78 245.88 79.71 190.14 101.42 188.67
  Z
  M 100.74 196.05
  C 89.80 196.81 86.71 242.53 86.59 250.25
  C 86.47 257.51 86.81 279.60 98.08 280.26
  C 103.65 280.58 107.55 276.48 105.65 270.74
  C 100.87 256.25 98.00 242.76 100.13 228.56
  C 101.11 222.06 104.95 212.95 105.77 205.77
  C 106.14 202.49 104.86 195.76 100.74 196.05
  Z"
/>
<path fill="#000000" d="
  M 228.24 215.13
  C 232.77 191.88 258.36 185.18 276.70 197.28
  C 290.66 206.49 299.50 224.98 294.24 241.56
  C 289.57 256.28 274.14 265.11 259.25 264.52
  C 241.92 263.84 226.19 250.78 225.63 232.68
  C 225.46 227.31 227.12 220.87 228.24 215.13
  Z
  M 235.07 212.39
  C 230.51 222.16 229.27 235.57 235.37 244.85
  C 243.31 256.92 259.33 260.06 272.24 254.72
  C 281.78 250.78 288.44 241.57 288.62 231.21
  C 288.90 215.54 274.63 201.19 259.52 199.38
  Q 246.80 197.85 237.36 208.13
  C 236.30 209.29 235.75 210.95 235.07 212.39
  Z"
/>
<path fill="#000000" d="
  M 337.64 260.50
  C 334.06 263.08 330.25 267.37 326.76 268.72
  C 316.29 272.80 305.53 260.16 302.55 251.46
  C 299.04 241.17 313.55 237.59 311.77 230.10
  Q 311.66 229.65 308.85 224.67
  Q 303.63 215.42 311.45 207.15
  C 322.28 195.69 342.11 202.60 352.48 211.51
  C 361.21 219.02 367.11 230.37 365.59 241.88
  C 364.51 250.05 359.51 258.97 350.92 261.05
  C 347.17 261.96 342.62 260.91 338.60 260.27
  Q 338.07 260.19 337.64 260.50
  Z
  M 357.79 235.76
  C 355.15 220.77 343.03 209.89 327.50 208.53
  C 322.11 208.06 316.22 210.52 315.32 216.21
  C 314.45 221.68 320.85 225.74 319.40 231.49
  Q 317.80 237.88 312.44 241.91
  C 303.25 248.82 317.13 262.47 323.82 260.05
  C 327.18 258.83 330.23 253.96 333.23 252.50
  C 337.74 250.31 342.09 252.37 346.50 253.17
  C 351.62 254.10 356.05 249.57 357.51 245.14
  Q 358.77 241.31 357.79 235.76
  Z"
/>
<circle fill="#000000" cx="255.02" cy="214.28" r="3.72"/>
<path fill="#000000" d="
  M 131.3225 236.8428
  A 13.29 11.86 76.5 0 1 116.6877 226.6887
  A 13.29 11.86 76.5 0 1 125.1175 210.9972
  A 13.29 11.86 76.5 0 1 139.7523 221.1513
  A 13.29 11.86 76.5 0 1 131.3225 236.8428
  Z
  M 130.8321 230.1444
  A 7.63 6.49 63.1 0 0 133.1678 220.4037
  A 7.63 6.49 63.1 0 0 123.9279 216.5356
  A 7.63 6.49 63.1 0 0 121.5922 226.2763
  A 7.63 6.49 63.1 0 0 130.8321 230.1444
  Z"
/>
<circle fill="#000000" cx="270.66" cy="215.54" r="2.87"/>
<circle fill="#000000" cx="269.24" cy="226.43" r="3.50"/>
<ellipse fill="#000000" cx="0.00" cy="0.00" transform="translate(249.13,229.63) rotate(72.8)" rx="4.70" ry="4.46"/>
<path fill="#000000" d="
  M 178.04 294.64
  C 174.43 297.18 170.77 301.51 167.08 302.88
  Q 160.17 305.43 153.69 300.28
  C 147.35 295.24 139.34 285.56 143.99 277.30
  C 145.75 274.17 150.16 271.24 151.89 267.61
  C 153.33 264.58 150.34 260.84 148.84 258.21
  C 144.06 249.79 150.13 240.55 157.90 237.13
  C 169.10 232.18 184.11 238.25 192.89 245.87
  C 205.25 256.59 211.04 274.08 200.94 288.44
  C 195.11 296.73 188.16 296.19 178.96 294.44
  Q 178.46 294.34 178.04 294.64
  Z
  M 159.79 263.70
  C 159.86 268.76 156.14 273.61 152.20 276.58
  C 143.52 283.11 158.83 298.77 165.86 293.39
  C 168.82 291.12 173.80 284.38 179.02 285.69
  C 182.54 286.58 187.45 288.28 190.87 286.96
  C 200.57 283.23 199.51 270.32 195.73 262.42
  Q 187.46 245.15 168.23 242.76
  C 163.22 242.14 157.29 244.29 155.81 249.47
  C 154.31 254.75 159.73 258.55 159.79 263.70
  Z"
/>
<circle fill="#000000" cx="272.65" cy="241.15" r="2.87"/>
<ellipse fill="#000000" cx="0.00" cy="0.00" transform="translate(259.14,244.19) rotate(-36.0)" rx="4.11" ry="3.56"/>
<path fill="#000000" d="
  M 313.58 291.80
  C 308.57 300.77 298.10 303.12 288.61 303.12
  Q 268.70 303.12 249.01 300.04
  C 239.02 298.48 218.14 293.96 217.32 279.94
  C 216.91 272.96 224.59 268.18 231.16 268.79
  Q 240.17 269.63 250.74 273.84
  Q 256.98 276.32 264.97 277.26
  Q 272.12 278.10 279.43 276.75
  Q 289.03 274.98 300.48 270.91
  C 313.32 266.35 318.48 283.02 313.58 291.80
  Z
  M 250.87 280.69
  Q 243.17 278.17 235.24 276.64
  Q 231.50 275.91 228.04 277.28
  C 219.57 280.63 229.64 287.16 232.83 288.42
  Q 239.96 291.25 249.28 293.05
  Q 268.71 296.80 288.50 296.24
  C 295.70 296.04 313.07 293.05 308.39 281.65
  C 306.77 277.71 303.29 276.68 299.42 277.95
  Q 288.84 281.43 277.75 282.77
  Q 262.76 284.58 250.87 280.69
  Z"
/>
<path fill="#000000" d="
  M 365.3348 299.2525
  A 13.30 11.86 76.5 0 1 350.6977 289.0887
  A 13.30 11.86 76.5 0 1 359.1252 273.3875
  A 13.30 11.86 76.5 0 1 373.7623 283.5513
  A 13.30 11.86 76.5 0 1 365.3348 299.2525
  Z
  M 364.8257 292.5415
  A 7.62 6.50 63.2 0 0 367.1918 282.8093
  A 7.62 6.50 63.2 0 0 357.9543 278.9385
  A 7.62 6.50 63.2 0 0 355.5882 288.6707
  A 7.62 6.50 63.2 0 0 364.8257 292.5415
  Z"
/>
<path fill="#000000" d="
  M 413.1425 312.8428
  A 13.29 11.87 76.5 0 1 398.4980 302.6910
  A 13.29 11.87 76.5 0 1 406.9375 286.9972
  A 13.29 11.87 76.5 0 1 421.5820 297.1490
  A 13.29 11.87 76.5 0 1 413.1425 312.8428
  Z
  M 412.6421 306.1344
  A 7.63 6.49 63.1 0 0 414.9778 296.3937
  A 7.63 6.49 63.1 0 0 405.7379 292.5256
  A 7.63 6.49 63.1 0 0 403.4022 302.2663
  A 7.63 6.49 63.1 0 0 412.6421 306.1344
  Z"
/>
<path fill="#000000" d="
  M 211.3348 328.4425
  A 13.30 11.85 76.5 0 1 196.7074 318.2763
  A 13.30 11.85 76.5 0 1 205.1252 302.5775
  A 13.30 11.85 76.5 0 1 219.7526 312.7437
  A 13.30 11.85 76.5 0 1 211.3348 328.4425
  Z
  M 210.8658 321.7323
  A 7.63 6.50 62.9 0 0 213.1764 311.9790
  A 7.63 6.50 62.9 0 0 203.9142 308.1477
  A 7.63 6.50 62.9 0 0 201.6036 317.9010
  A 7.63 6.50 62.9 0 0 210.8658 321.7323
  Z"
/>
<path fill="#000000" d="
  M 119.2448 331.9625
  A 13.30 11.86 76.5 0 1 104.6077 321.7987
  A 13.30 11.86 76.5 0 1 113.0352 306.0975
  A 13.30 11.86 76.5 0 1 127.6723 316.2613
  A 13.30 11.86 76.5 0 1 119.2448 331.9625
  Z
  M 118.7977 325.2362
  A 7.63 6.50 62.8 0 0 121.0912 315.4789
  A 7.63 6.50 62.8 0 0 111.8223 311.6638
  A 7.63 6.50 62.8 0 0 109.5288 321.4211
  A 7.63 6.50 62.8 0 0 118.7977 325.2362
  Z"
/>
<path fill="#000000" d="
  M 365.95 383.56
  C 346.29 386.90 325.57 372.13 325.59 350.98
  Q 325.59 348.28 326.61 343.11
  C 327.29 339.64 327.69 335.74 328.58 332.69
  Q 333.68 315.18 350.26 311.65
  C 367.87 307.90 384.09 318.13 391.60 333.71
  C 398.54 348.09 396.93 365.31 384.05 375.59
  Q 376.26 381.80 365.95 383.56
  Z
  M 344.69 321.67
  Q 338.79 324.74 336.27 329.26
  Q 330.60 339.44 331.31 351.51
  C 333.07 381.51 376.50 385.55 387.15 358.88
  Q 391.29 348.52 385.41 337.50
  C 377.75 323.14 360.46 313.47 344.69 321.67
  Z"
/>
<path fill="#000000" d="
  M 289.99 359.84
  C 288.65 364.10 288.34 369.85 286.09 373.20
  C 279.81 382.50 260.21 379.17 254.19 371.28
  C 250.68 366.69 253.35 359.53 253.06 354.99
  C 252.70 349.16 244.36 349.24 240.89 345.64
  C 234.63 339.15 236.34 328.21 241.95 322.20
  Q 245.44 318.46 251.58 315.65
  Q 266.72 308.75 282.69 313.85
  Q 294.65 317.67 300.21 326.53
  C 305.06 334.26 307.05 345.49 300.50 352.78
  C 298.09 355.45 293.95 357.23 290.60 359.10
  Q 290.14 359.35 289.99 359.84
  Z
  M 255.90 321.58
  C 245.17 325.76 238.14 337.31 252.97 343.15
  C 259.59 345.76 260.41 354.18 258.71 360.15
  C 256.03 369.55 267.39 371.20 273.50 370.69
  C 281.87 369.99 279.25 360.30 282.23 355.05
  C 285.23 349.75 293.07 350.95 296.13 345.10
  C 300.57 336.60 292.51 327.34 285.15 323.35
  Q 271.02 315.70 255.90 321.58
  Z"
/>
<circle fill="#000000" cx="354.99" cy="333.71" r="3.72"/>
<circle fill="#000000" cx="370.63" cy="334.99" r="2.87"/>
<path fill="#000000" d="
  M 150.37 350.18
  C 158.29 331.87 180.58 328.43 196.35 338.55
  C 210.66 347.72 219.73 366.35 214.38 383.21
  C 209.67 398.03 193.93 406.85 179.00 406.11
  C 161.79 405.26 146.19 392.09 145.76 374.00
  Q 145.69 370.98 146.72 365.56
  C 147.71 360.34 148.11 355.40 150.37 350.18
  Z
  M 165.67 343.39
  Q 159.41 346.37 156.73 350.93
  C 151.03 360.62 148.99 375.82 155.12 385.79
  C 166.00 403.51 194.05 403.00 204.97 385.63
  C 219.60 362.36 189.71 331.91 165.67 343.39
  Z"
/>
<circle fill="#000000" cx="369.23" cy="345.87" r="3.49"/>
<ellipse fill="#000000" cx="0.00" cy="0.00" transform="translate(349.11,349.07) rotate(75.9)" rx="4.71" ry="4.46"/>
<circle fill="#000000" cx="175.17" cy="355.86" r="3.72"/>
<circle fill="#000000" cx="190.80" cy="357.13" r="2.87"/>
<circle fill="#000000" cx="372.64" cy="360.58" r="2.88"/>
<ellipse fill="#000000" cx="0.00" cy="0.00" transform="translate(359.12,363.63) rotate(-36.2)" rx="4.10" ry="3.57"/>
<circle fill="#000000" cx="189.39" cy="368.01" r="3.50"/>
<ellipse fill="#000000" cx="0.00" cy="0.00" transform="translate(169.27,371.22) rotate(76.2)" rx="4.71" ry="4.46"/>
<path fill="#000000" d="
  M 239.5248 400.9125
  A 13.30 11.86 76.5 0 1 224.8877 390.7487
  A 13.30 11.86 76.5 0 1 233.3152 375.0475
  A 13.30 11.86 76.5 0 1 247.9523 385.2113
  A 13.30 11.86 76.5 0 1 239.5248 400.9125
  Z
  M 238.9964 394.2224
  A 7.63 6.50 63.4 0 0 241.3920 384.4896
  A 7.63 6.50 63.4 0 0 232.1636 380.5776
  A 7.63 6.50 63.4 0 0 229.7680 390.3104
  A 7.63 6.50 63.4 0 0 238.9964 394.2224
  Z"
/>
<circle fill="#000000" cx="192.80" cy="382.73" r="2.87"/>
<ellipse fill="#000000" cx="0.00" cy="0.00" transform="translate(179.30,385.78) rotate(-36.1)" rx="4.10" ry="3.56"/>
<path fill="#000000" d="
  M 308.13 427.01
  Q 289.72 433.49 270.49 436.98
  C 261.66 438.59 248.58 440.12 240.16 435.41
  C 233.94 431.92 230.43 424.36 235.46 418.31
  C 241.12 411.50 252.54 411.24 261.27 411.71
  Q 268.42 412.10 276.96 410.40
  Q 283.75 409.04 290.02 405.74
  Q 298.74 401.14 306.41 394.92
  C 311.44 390.84 314.95 388.25 320.78 391.20
  Q 323.56 392.60 325.65 395.95
  C 335.08 411.12 321.62 422.25 308.13 427.01
  Z
  M 299.63 406.80
  C 291.05 411.53 283.76 415.80 273.64 417.56
  C 266.73 418.76 257.06 418.17 249.01 419.43
  C 242.98 420.38 235.86 428.24 246.50 430.60
  Q 251.07 431.61 255.74 431.32
  Q 276.11 430.06 295.67 424.26
  C 303.30 421.99 330.96 412.76 319.80 399.71
  C 316.86 396.27 312.59 397.74 309.50 400.21
  Q 304.84 403.93 299.63 406.80
  Z"
/>
</svg>
