<?xml version="1.0" standalone="no"?>
<!DOCTYPE svg PUBLIC "-//W3C//DTD SVG 20010904//EN"
 "http://www.w3.org/TR/2001/REC-SVG-20010904/DTD/svg10.dtd">
<svg version="1.0" xmlns="http://www.w3.org/2000/svg"
 width="512.000000pt" height="512.000000pt" viewBox="0 0 512.000000 512.000000"
 preserveAspectRatio="xMidYMid meet">
<metadata>
Created by potrace 1.14, written by Peter Selinger 2001-2017
</metadata>
<g transform="translate(0.000000,512.000000) scale(0.100000,-0.100000)"
fill="#000000" stroke="none">
<path d="M1570 4448 c-17 -46 -43 -114 -57 -153 -14 -38 -29 -74 -34 -79 -16
-18 -9 -26 21 -26 23 0 30 5 30 19 0 41 11 51 57 51 l45 0 -4 -35 -4 -35 44 0
c24 0 41 4 38 9 -3 4 -15 71 -26 147 -28 191 -26 184 -54 184 -21 0 -28 -11
-56 -82z m49 -120 c1 -13 -7 -18 -24 -18 -30 0 -31 14 -8 72 l17 43 8 -40 c4
-22 7 -48 7 -57z"/>
<path d="M1783 4516 c8 -20 -29 -279 -43 -307 -10 -17 -7 -19 30 -19 38 0 40
1 40 33 0 17 3 49 7 71 6 38 6 38 45 33 22 -3 42 -7 44 -10 5 -4 -11 -93 -21
-119 -6 -15 -1 -18 26 -18 l34 0 19 118 c10 64 24 138 31 165 12 46 12 47 -11
47 -12 0 -29 3 -37 6 -11 4 -15 -4 -15 -36 -1 -23 -4 -55 -7 -71 -6 -27 -10
-29 -51 -29 l-45 0 7 48 c4 26 11 57 15 70 7 17 5 22 -9 22 -9 0 -28 3 -41 7
-20 5 -23 3 -18 -11z"/>
<path d="M1359 4435 c-18 -47 -35 -85 -39 -85 -4 0 -12 26 -19 58 -19 89 -21
92 -44 92 -47 0 -67 -11 -62 -34 7 -25 -11 -263 -21 -289 -6 -16 -2 -18 22
-15 l29 3 3 85 c4 144 11 149 42 30 24 -94 28 -102 38 -80 6 14 27 66 46 115
l37 90 -7 -90 c-3 -49 -10 -100 -15 -113 -9 -23 -8 -24 22 -18 17 3 36 6 41 6
5 0 6 5 3 11 -8 12 12 237 25 287 l8 32 -38 0 -39 0 -32 -85z"/>
<path d="M2165 4478 c-37 -22 -46 -41 -42 -99 3 -47 0 -59 -16 -68 -22 -14
-47 -70 -47 -105 0 -49 80 -83 130 -56 15 8 24 5 44 -15 32 -32 41 -31 63 2
13 20 14 28 5 31 -7 2 -19 10 -26 18 -13 12 -10 21 20 65 19 28 34 55 34 59 0
4 -13 10 -30 12 -20 3 -30 0 -30 -8 0 -19 -22 -64 -31 -64 -5 0 -16 14 -25 31
-15 30 -15 32 5 46 25 17 51 64 51 93 0 26 -43 70 -67 70 -10 0 -27 -6 -38
-12z m51 -62 c7 -19 -14 -58 -29 -53 -14 4 -21 32 -13 53 7 18 35 18 42 0z
m-46 -177 c11 -25 11 -32 0 -39 -32 -20 -60 23 -40 60 13 25 23 20 40 -21z"/>
<path d="M1085 4473 c-18 -3 -20 -10 -17 -71 l3 -68 -46 -11 -47 -11 4 69 c4
72 3 73 -41 60 -23 -6 -23 -8 -22 -126 1 -66 -2 -141 -7 -166 l-9 -46 36 9 37
9 -4 64 c-5 70 0 76 66 88 36 7 36 8 23 -80 -7 -49 -6 -53 13 -52 49 1 51 6
55 154 2 77 7 150 12 162 7 20 5 23 -14 22 -12 -1 -31 -4 -42 -6z"/>
<path d="M2461 4302 c-13 -60 -31 -133 -41 -163 -10 -29 -17 -55 -16 -56 1 -2
16 -5 32 -9 30 -6 30 -6 43 60 10 50 17 66 30 66 9 0 22 -5 28 -11 12 -12 17
-6 27 34 6 24 4 27 -18 27 -33 0 -37 10 -25 54 9 32 13 36 32 30 12 -3 28 -13
34 -22 15 -19 19 -16 27 24 6 28 4 32 -21 42 -39 14 -95 32 -102 32 -4 0 -17
-49 -30 -108z"/>
<path d="M750 4390 c-21 -5 -28 -17 -42 -70 -13 -47 -14 -67 -6 -77 15 -19 28
-16 28 7 0 36 17 21 29 -24 21 -83 13 -91 -50 -57 l-36 20 -13 -57 c-7 -31
-17 -65 -22 -75 -13 -24 -6 -29 26 -21 22 5 26 12 26 40 0 36 15 48 71 56 20
2 25 -2 27 -25 3 -27 5 -29 40 -22 20 4 38 8 40 9 2 3 -36 130 -76 252 -16 46
-19 50 -42 44z"/>
<path d="M463 4293 c-36 -12 -41 -18 -34 -32 5 -9 11 -81 13 -159 2 -87 7
-142 13 -141 5 0 39 13 75 27 59 25 65 30 68 59 l3 31 -38 -19 c-65 -33 -64
-34 -61 116 2 74 3 135 3 134 0 0 -19 -7 -42 -16z"/>
<path d="M2786 4277 c-61 -98 -63 -102 -54 -127 l9 -25 21 33 c11 17 21 32 22
32 6 0 -8 -208 -15 -221 -6 -12 0 -20 28 -33 19 -9 37 -16 38 -14 2 2 5 84 6
182 3 177 3 179 -19 187 -17 7 -25 3 -36 -14z"/>
<path d="M2962 4192 c-2 -23 -62 -214 -87 -274 -5 -12 1 -21 23 -32 l30 -15
11 44 c6 24 15 55 20 69 l10 25 39 -22 40 -21 -18 -51 c-10 -27 -21 -58 -25
-67 -5 -12 1 -21 21 -31 l28 -15 48 140 c26 77 53 147 59 154 7 8 10 16 8 17
-16 11 -59 37 -62 37 -2 0 -9 -24 -16 -52 -18 -80 -23 -85 -63 -61 -39 23 -41
51 -10 115 l20 39 -29 14 c-39 21 -44 19 -47 -13z"/>
<path d="M2653 4056 l-31 -44 25 -11 c14 -7 26 -10 27 -9 1 2 7 16 14 31 10
23 16 27 35 21 20 -6 19 -4 -7 25 -17 17 -30 31 -31 31 -1 0 -15 -20 -32 -44z"/>
<path d="M3175 3967 c-22 -67 -48 -137 -57 -156 -17 -32 -17 -35 0 -47 9 -7
19 -14 23 -14 3 0 15 32 28 71 47 147 52 148 45 9 l-7 -125 69 82 c37 46 69
81 71 79 3 -3 -38 -107 -65 -165 -15 -33 -15 -35 7 -52 24 -20 41 -17 41 7 0
17 89 245 101 258 14 15 11 21 -21 45 l-30 22 -28 -33 c-15 -18 -39 -46 -54
-63 l-27 -30 2 98 2 97 -30 19 -30 19 -40 -121z"/>
<path d="M3504 3788 c-27 -35 -72 -91 -101 -125 l-52 -61 24 -16 c31 -21 32
-20 39 9 8 32 18 31 58 -4 31 -27 32 -32 22 -59 -11 -28 -9 -33 17 -58 16 -15
30 -26 32 -23 4 6 48 321 47 345 0 11 -8 28 -18 38 -18 15 -21 13 -68 -46z
m21 -85 c-12 -70 -14 -74 -36 -63 -10 6 -19 15 -19 21 0 11 49 79 57 79 2 0 1
-17 -2 -37z"/>
<path d="M3696 3687 c-4 -18 -33 -85 -64 -150 l-57 -118 26 -25 26 -25 23 61
c12 33 26 62 30 65 4 2 21 -11 39 -29 l32 -33 -18 -39 c-9 -21 -24 -47 -32
-57 -13 -16 -12 -21 17 -50 25 -25 32 -28 32 -14 0 19 117 259 131 268 5 3 -7
20 -26 39 -30 29 -35 31 -35 14 0 -10 -10 -41 -23 -67 l-22 -48 -34 34 c-31
33 -33 37 -22 70 7 20 21 47 31 60 l20 25 -34 26 -34 25 -6 -32z"/>
<path d="M2216 3498 l-129 -120 -46 6 c-210 30 -352 30 -536 1 -187 -30 -394
-106 -563 -208 l-93 -56 -47 32 c-76 51 -138 121 -157 176 -9 27 -23 55 -31
62 -23 19 -57 -3 -85 -55 -13 -25 -27 -46 -30 -46 -3 0 -12 31 -19 69 -18 94
-18 94 -73 80 l-47 -11 7 -42 c6 -40 6 -41 -14 -24 -44 39 -180 41 -252 4 -52
-27 -63 -75 -25 -107 13 -11 14 -9 4 13 -17 36 1 65 53 89 54 24 148 25 188 2
36 -21 55 -72 41 -112 -6 -17 -6 -33 -1 -42 5 -8 8 -37 7 -64 -2 -40 2 -56 19
-79 13 -16 24 -38 24 -50 4 -68 3 -84 -3 -79 -9 5 -10 -6 -8 -64 4 -100 -108
-126 -193 -45 -21 20 -27 35 -25 58 2 24 -6 41 -30 68 -37 43 -40 63 -11 102
18 25 17 25 -10 -4 -37 -38 -35 -60 9 -107 22 -24 27 -37 23 -63 -3 -18 0 -39
7 -47 10 -12 10 -18 0 -30 -14 -17 21 -169 75 -323 l32 -94 -27 -86 c-172
-534 -49 -1119 324 -1540 326 -370 788 -559 1297 -531 429 24 848 240 1129
584 l59 72 203 6 c253 7 309 23 511 144 l57 35 43 -17 c25 -9 64 -15 92 -13
44 3 52 7 70 35 12 20 28 32 42 33 65 1 104 45 85 97 l-10 28 -1 -36 c-1 -45
-26 -69 -80 -76 -25 -3 -41 -11 -41 -19 0 -27 -48 -47 -101 -42 -110 11 -147
92 -78 169 16 18 29 40 29 48 1 35 57 81 100 81 13 0 24 10 31 28 12 32 48 72
64 72 6 0 17 16 24 35 15 43 61 70 105 61 71 -14 156 -106 156 -169 0 -26 -23
-57 -42 -57 -6 0 -9 -2 -6 -5 10 -10 57 14 67 34 34 64 -119 220 -215 221 -7
0 -1 21 14 50 14 27 30 50 35 50 5 0 16 8 24 18 14 16 14 16 9 0 -3 -10 -3
-18 0 -18 10 0 64 44 64 52 0 5 -10 -1 -22 -12 -13 -12 -24 -17 -26 -11 -3 9
43 60 56 61 4 0 7 3 7 8 0 4 4 13 9 20 5 8 4 18 -3 25 -7 7 -12 6 -17 -6 -3
-9 -10 -17 -16 -17 -5 0 -6 4 -3 10 3 6 -1 7 -9 4 -9 -3 -13 -10 -10 -15 6
-11 -58 -79 -75 -79 -16 0 -14 15 4 30 8 7 15 19 15 26 0 8 7 14 15 14 9 0 15
9 15 25 0 20 5 25 28 26 15 1 30 1 34 0 4 0 15 10 24 24 9 14 23 25 30 25 8 0
14 5 14 11 0 5 -6 7 -13 3 -8 -5 -7 -2 2 9 8 10 16 15 19 13 4 -5 37 33 57 66
6 9 25 37 43 64 24 34 32 54 27 71 -5 22 -4 23 16 13 17 -10 29 -8 60 6 22 9
39 21 39 26 0 5 -11 1 -24 -7 -18 -12 -36 -15 -70 -10 -25 4 -46 11 -46 16 0
5 6 6 13 3 20 -7 69 14 62 27 -4 5 3 19 15 29 21 18 33 19 103 5 23 -4 22 4
-4 31 l-22 23 24 6 c24 6 68 75 49 75 -6 0 -10 -6 -10 -13 0 -18 -36 -50 -60
-54 -15 -2 -18 1 -13 15 6 16 5 16 -14 0 -11 -10 -26 -18 -33 -18 -8 0 -4 8 9
19 23 20 21 42 -2 40 -8 0 -8 -2 1 -6 23 -9 -36 -54 -62 -47 -21 5 -23 10 -19
47 8 64 28 106 50 102 10 -2 24 -4 31 -4 7 -1 10 -5 7 -11 -4 -6 1 -7 11 -3
13 5 16 2 12 -8 -3 -8 1 -20 8 -27 12 -11 15 -11 20 1 2 7 10 14 17 15 7 0 22
3 34 6 18 4 24 0 29 -20 l6 -25 15 21 c13 19 13 23 -2 40 -17 19 -17 21 7 57
33 49 41 85 26 117 -12 27 -38 36 -38 14 -1 -8 -6 -6 -14 4 -7 10 -27 21 -44
24 -25 5 -38 1 -62 -20 -18 -14 -35 -26 -40 -26 -4 0 -13 -13 -20 -30 -7 -17
-19 -29 -29 -28 -52 4 -67 -16 -77 -109 -6 -42 -11 -57 -26 -61 -10 -2 -18 -8
-18 -12 0 -5 -20 -21 -45 -37 -48 -30 -54 -43 -30 -63 22 -18 19 -31 -26 -109
-43 -76 -54 -87 -64 -71 -3 5 -15 10 -25 10 -10 0 -20 6 -23 13 -14 36 -87
-100 -87 -161 0 -27 -44 -79 -80 -94 -21 -9 -22 -12 -7 -15 26 -7 23 -76 -6
-118 -13 -19 -27 -32 -30 -28 -4 3 -7 1 -7 -6 0 -7 -13 -10 -37 -8 -21 2 -38
9 -37 16 1 6 2 22 3 36 2 34 44 45 72 19 21 -18 21 -18 17 11 -2 18 3 35 12
42 8 6 12 15 8 18 -4 4 -14 0 -22 -8 -25 -25 -77 -32 -88 -13 -5 9 -19 16 -31
16 -12 0 -29 5 -37 10 -13 8 -12 10 3 10 16 0 17 6 13 48 -4 29 -2 42 3 33 5
-8 25 -15 44 -16 34 -3 35 -2 25 25 -5 15 -18 30 -29 33 -10 3 -17 1 -13 -4 3
-5 0 -9 -5 -9 -6 0 -11 5 -11 10 0 6 -9 20 -20 32 -22 24 -26 43 -10 53 6 3
10 0 10 -7 0 -7 12 0 27 16 16 17 29 24 31 18 2 -7 19 -12 38 -12 19 0 34 -4
34 -10 0 -5 5 -10 10 -10 6 0 10 7 10 15 0 8 8 15 19 15 27 0 38 20 31 60 l-6
35 -7 -33 c-4 -19 -11 -31 -17 -27 -6 3 -13 0 -16 -9 -3 -8 -14 -13 -25 -11
-10 2 -19 -1 -19 -7 0 -6 -3 -8 -7 -5 -3 4 1 15 9 24 8 10 22 35 32 56 9 20
21 35 27 32 5 -4 9 0 9 7 0 7 6 24 13 38 8 14 16 35 19 46 4 17 1 20 -17 17
-13 -3 -30 -22 -46 -51 -13 -26 -27 -48 -31 -50 -5 -2 -8 -10 -8 -18 0 -8 -5
-14 -11 -14 -6 0 -9 7 -5 15 3 8 1 15 -3 15 -5 0 -11 18 -13 40 -4 42 1 47 32
30 16 -8 18 -7 14 4 -3 9 3 17 18 22 20 7 16 9 -27 17 -27 4 -61 9 -75 9 l-25
1 7 89 c10 132 2 123 118 125 95 2 100 1 97 -18 -2 -12 -9 -24 -15 -28 -7 -4
-8 -12 -2 -21 8 -13 11 -13 22 -1 10 10 10 12 1 7 -7 -4 -13 -2 -13 4 0 7 9
14 20 17 22 6 27 23 8 23 -10 0 -10 2 0 8 8 6 3 15 -19 31 -18 13 -29 19 -25
12 5 -7 -1 -11 -13 -11 -25 0 -28 18 -5 27 9 3 20 15 24 27 l9 21 0 -22 c2
-39 18 -34 25 8 8 53 -2 106 -20 106 -11 0 -11 -3 -2 -15 10 -11 8 -18 -10
-32 -12 -10 -22 -25 -22 -34 0 -8 -5 -18 -10 -21 -6 -4 -10 -12 -9 -18 1 -7
-1 -19 -5 -28 -8 -19 -55 -14 -63 8 -3 8 -13 11 -24 8 -11 -4 -19 -2 -19 4 0
5 10 11 22 13 21 3 25 12 30 71 2 25 4 26 14 12 11 -15 13 -14 19 4 3 12 14
21 22 21 14 0 14 3 -3 19 -13 12 -21 14 -26 7 -5 -8 -11 -7 -20 2 -10 10 -10
15 2 22 8 5 23 7 34 4 12 -4 17 -2 14 7 -2 7 -13 16 -24 19 -10 3 -20 11 -22
18 -2 9 5 9 27 -3 17 -8 41 -15 55 -15 18 0 24 -4 20 -14 -3 -8 -1 -22 4 -32
7 -12 9 -6 9 27 0 24 -6 53 -13 65 -8 11 -11 24 -7 28 4 4 0 4 -9 1 -26 -10
-31 12 -6 29 16 11 25 13 35 5 10 -9 15 -5 23 16 14 36 13 75 -2 76 -7 1 -29
3 -48 5 -19 2 -45 3 -57 4 -26 0 -42 20 -16 20 14 0 18 8 19 43 0 23 -5 47
-12 54 -9 10 -13 2 -19 -34 l-7 -45 -70 7 -70 6 5 -73 c4 -40 7 -90 9 -111 2
-29 -1 -37 -13 -37 -24 0 -29 -21 -29 -115 l0 -83 34 -12 c36 -11 57 -40 30
-40 -8 0 -17 7 -20 15 -5 13 -9 13 -34 0 -33 -17 -40 -33 -40 -88 0 -23 -5
-60 -10 -82 -5 -22 -5 -41 -1 -43 5 -1 17 -9 27 -17 19 -13 19 -14 -1 -51 -16
-30 -19 -53 -17 -112 1 -42 7 -81 13 -88 8 -9 5 -15 -10 -24 -31 -16 -40 -41
-47 -122 -6 -74 -6 -74 30 -117 20 -24 36 -46 36 -50 0 -19 -14 -19 -27 -1
-20 28 -33 25 -33 -9 0 -38 -14 -42 -138 -45 -129 -2 -159 -19 -191 -107 -6
-17 -21 -29 -47 -37 -21 -6 -39 -10 -40 -9 -1 1 2 52 6 112 18 218 -21 481
-100 681 -92 230 -241 449 -413 604 -32 29 -59 67 -81 114 -33 71 -116 190
-210 301 -90 107 -189 215 -195 214 -3 0 -64 -54 -135 -121z m221 15 c174
-192 283 -339 310 -418 24 -73 14 -185 -25 -268 -17 -37 -35 -67 -39 -67 -5 0
-22 26 -37 57 -94 192 -243 356 -433 476 l-63 39 32 42 c17 22 36 48 41 56 13
21 -33 -29 -63 -69 -22 -29 -30 -32 -67 -29 l-42 3 147 132 c81 73 150 133
153 133 4 0 43 -39 86 -87z m-1827 -153 c11 -6 24 -29 30 -52 13 -45 98 -143
157 -179 58 -36 78 -101 49 -158 -8 -15 -36 -47 -62 -71 l-48 -44 -22 49 c-13
28 -23 56 -23 63 -1 19 -15 14 -46 -18 -28 -29 -58 -39 -69 -21 -3 5 -13 42
-21 82 -9 41 -18 83 -22 94 -5 17 -4 18 10 7 28 -23 111 -48 142 -42 25 4 21
7 -34 18 -46 10 -72 22 -99 46 -34 31 -36 38 -37 93 0 48 5 67 28 101 29 44
37 48 67 32z m-156 -33 c8 -13 7 -20 -4 -27 -20 -12 -45 12 -36 35 7 20 25 16
40 -8z m1499 14 c48 -7 73 -15 82 -28 12 -16 10 -19 -19 -29 -104 -37 -250
-149 -295 -227 -23 -39 -23 -41 -4 -24 l21 19 -20 -56 c-16 -43 -27 -57 -50
-65 -44 -16 -122 -76 -149 -116 -28 -41 -35 -43 -45 -13 -5 17 1 28 27 51 l34
29 -30 -7 c-35 -7 -75 -47 -75 -76 0 -11 5 -39 11 -63 8 -33 7 -59 -5 -119 -9
-42 -16 -110 -16 -150 0 -70 -2 -76 -27 -92 -23 -16 -43 -17 -182 -10 -86 4
-157 8 -159 10 -2 1 -47 121 -101 266 -54 145 -104 265 -110 267 -7 2 -3 15
11 34 13 19 23 51 26 83 l4 52 67 40 c186 114 375 185 586 218 94 15 321 18
418 6z m-1443 -210 c0 -11 -3 -11 -15 -1 -9 7 -14 19 -11 26 2 6 2 15 -2 18
-12 13 -17 59 -13 116 2 27 7 14 22 -55 10 -49 18 -96 19 -104z m1753 107 c70
-48 151 -121 209 -191 36 -43 39 -49 26 -65 -38 -44 -52 -136 -31 -204 9 -29
17 -60 19 -68 1 -8 7 -29 12 -47 6 -17 8 -34 4 -37 -3 -3 10 -6 29 -6 51 -1
116 -34 139 -72 72 -119 -66 -253 -210 -204 -36 12 -41 12 -26 1 10 -8 23 -16
29 -18 31 -10 -113 -178 -219 -253 -133 -95 -302 -152 -414 -140 -167 19 -315
175 -364 386 -16 66 -21 234 -10 302 l6 37 43 -42 c23 -23 58 -51 78 -61 19
-11 40 -29 46 -40 10 -22 43 -197 38 -203 -2 -1 -26 11 -53 27 l-49 30 50 -45
c76 -70 164 -109 252 -113 64 -4 80 -1 138 27 43 20 87 52 126 91 33 33 63 60
66 60 3 0 3 -10 0 -22 -6 -22 -6 -22 8 -4 21 28 19 50 -9 83 l-24 29 34 32
c20 19 34 42 34 56 0 26 -31 71 -61 87 -20 10 -20 10 0 -30 12 -22 21 -45 21
-51 0 -34 -162 -53 -225 -26 l-30 12 61 12 c73 15 98 37 88 78 l-8 29 -8 -32
c-12 -46 -54 -57 -192 -51 -119 6 -167 20 -203 59 -34 38 -39 73 -12 98 13 11
27 21 31 21 5 0 41 16 81 34 75 36 137 85 137 108 0 10 -2 10 -8 0 -5 -6 -23
-23 -42 -37 -30 -22 -35 -23 -54 -10 -11 8 -30 15 -41 14 -13 0 -9 -4 13 -10
17 -5 32 -13 32 -17 0 -5 -35 -23 -79 -41 -100 -41 -121 -56 -121 -87 0 -18
-5 -24 -20 -24 -25 0 -72 23 -88 43 -26 31 83 149 164 179 25 9 36 22 50 57
41 112 84 147 165 138 35 -4 51 -2 60 9 16 20 9 25 -53 33 l-53 6 49 34 c80
56 210 95 279 85 15 -2 56 -23 90 -46z m-1811 -13 c3 -14 2 -25 -2 -25 -4 0
-10 13 -12 29 -5 36 8 32 14 -4z m-62 -17 c0 -19 -2 -20 -10 -8 -13 19 -13 30
0 30 6 0 10 -10 10 -22z m26 -156 c-2 -1 -10 6 -18 15 -11 12 -14 29 -10 53
l5 34 13 -49 c7 -28 11 -51 10 -53z m74 59 c0 -26 -17 -36 -35 -21 -18 15 -8
40 16 40 12 0 19 -7 19 -19z m27 -23 c-3 -8 -6 -5 -6 6 -1 11 2 17 5 13 3 -3
4 -12 1 -19z m16 -63 c5 -28 4 -34 -3 -20 -8 19 -14 73 -6 64 2 -2 6 -22 9
-44z m3561 -51 c29 -11 17 -32 -29 -49 l-45 -18 17 -28 c10 -16 21 -29 26 -29
4 0 5 -4 2 -10 -11 -19 -34 -10 -47 18 -7 15 -23 31 -36 37 -21 9 -32 28 -13
23 5 -2 9 2 9 7 0 6 -4 9 -9 8 -11 -3 -11 3 -2 36 6 22 9 23 59 17 29 -3 59
-9 68 -12z m-3544 -30 c0 -8 -4 -12 -10 -9 -5 3 -10 13 -10 21 0 8 5 12 10 9
6 -3 10 -13 10 -21z m2301 -41 c226 -240 356 -483 421 -787 17 -81 21 -137 22
-281 1 -99 -3 -200 -7 -226 l-8 -45 -117 -41 -116 -40 -166 166 c-91 92 -209
200 -262 240 -88 67 -98 77 -98 106 0 31 -4 34 -81 69 -58 27 -85 34 -92 27
-6 -6 -15 -11 -20 -11 -5 0 16 27 46 60 30 34 69 88 86 120 l32 60 47 0 c88 1
157 48 182 126 16 49 -9 116 -55 147 l-33 23 59 99 c56 94 89 178 89 224 0 32
12 26 71 -36z m-2292 -35 c0 -27 -2 -29 -8 -13 -5 11 -6 26 -4 33 8 21 13 13
12 -20z m-32 6 c8 -21 -13 -42 -28 -27 -13 13 -5 43 11 43 6 0 13 -7 17 -16z
m399 -282 l91 -247 114 -8 c63 -4 133 -10 157 -13 l43 -5 -65 -67 c-134 -138
-260 -316 -356 -507 -134 -263 -196 -524 -188 -787 2 -96 6 -121 21 -135 17
-17 17 -16 13 12 -21 130 -11 328 25 488 75 341 280 699 545 957 85 82 86 83
23 14 -277 -300 -462 -646 -541 -1007 -19 -86 -22 -133 -23 -305 l0 -204 45
-39 c120 -105 306 -212 463 -268 159 -56 272 -74 462 -75 199 0 304 16 469 72
l109 37 17 85 c23 113 54 214 95 311 34 81 126 229 164 263 l22 20 137 -137
c109 -109 146 -139 180 -149 l42 -13 -71 -82 c-219 -254 -540 -435 -884 -499
-134 -25 -410 -26 -542 -1 -554 102 -1011 499 -1188 1030 -57 170 -69 256 -69
477 -1 217 9 292 56 449 l23 73 80 -118 c89 -133 200 -256 256 -284 20 -11 60
-22 90 -26 83 -10 84 -12 32 -84 -63 -90 -148 -269 -174 -370 -17 -66 -22
-113 -23 -210 0 -163 19 -244 76 -317 22 -30 42 -52 44 -50 2 1 -8 37 -21 79
-61 193 -56 397 16 609 53 158 195 386 322 518 29 29 42 48 30 42 -11 -6 -59
-51 -105 -101 l-83 -90 -88 11 c-59 8 -99 19 -120 33 -60 41 -268 308 -320
412 -26 52 -64 163 -96 282 -19 68 -19 73 -3 66 93 -40 227 -78 287 -81 60 -4
75 -1 107 19 51 32 198 159 198 171 0 28 22 -25 106 -251z m3064 238 c0 -5 -4
-10 -10 -10 -5 0 -10 5 -10 10 0 6 5 10 10 10 6 0 10 -4 10 -10z m110 -13 c0
-7 -9 -13 -20 -13 -22 0 -28 22 -7 29 16 6 27 -1 27 -16z m644 -244 c3 -8 0
-20 -7 -28 -11 -10 -16 -10 -32 1 -14 10 -22 11 -32 2 -17 -14 -25 -6 -17 16
13 34 76 41 88 9z m-56 -47 c10 -6 10 -11 1 -23 -11 -12 -14 -12 -21 1 -5 8
-15 13 -23 10 -9 -4 -15 0 -15 9 0 16 34 18 58 3z m-2957 -38 c60 -56 112 -73
219 -73 76 1 105 5 144 23 39 18 52 20 63 10 13 -10 6 -15 -36 -30 -146 -49
-285 -27 -416 66 -39 28 -45 36 -29 36 12 0 37 -14 55 -32z m-23 -49 c114
-101 283 -115 435 -37 21 10 42 16 45 13 12 -12 -57 -62 -106 -78 -26 -9 -39
-16 -29 -16 31 -1 9 -19 -50 -41 -72 -27 -181 -29 -253 -5 -28 9 -53 22 -56
29 -8 21 -31 166 -26 166 2 0 20 -14 40 -31z m2912 -159 c0 -13 -11 -13 -30 0
-12 8 -11 10 8 10 12 0 22 -4 22 -10z m-3140 -113 c52 -124 128 -208 229 -256
79 -37 212 -36 321 3 63 22 157 72 221 118 9 6 24 8 33 5 15 -6 12 -15 -22
-64 -68 -101 -114 -192 -152 -302 l-38 -106 -148 -3 c-169 -3 -309 10 -416 39
-98 27 -223 89 -282 141 l-48 43 25 73 c14 40 44 106 67 146 45 79 169 240
178 231 3 -2 17 -33 32 -68z m2925 -12 c20 -20 28 -23 54 -15 25 7 31 6 31 -6
0 -8 -3 -13 -7 -11 -5 3 -8 -15 -8 -38 -1 -49 -11 -67 -25 -45 -7 11 -10 12
-10 2 0 -16 -24 -42 -40 -42 -6 0 -22 12 -35 26 -14 15 -25 24 -25 20 0 -3 -9
3 -21 15 -19 19 -20 24 -8 45 9 18 15 21 21 12 6 -10 8 -10 8 0 0 13 31 61 39
62 2 0 14 -11 26 -25z m-2038 -107 c-95 -134 -183 -316 -216 -442 -12 -48 -24
-72 -35 -74 -9 -2 -16 3 -16 12 0 31 54 184 92 261 54 107 158 265 176 265 12
0 12 -4 -1 -22z m1917 -65 c-9 -36 -13 -43 -27 -43 -8 0 -8 3 1 12 7 7 12 22
12 35 0 13 5 23 10 23 6 0 8 -11 4 -27z m95 -7 c13 -7 20 -16 15 -19 -5 -3
-21 3 -34 14 -29 21 -17 25 19 5z m-74 -45 c-3 -6 -11 -11 -17 -11 -6 0 -6 6
2 15 14 17 26 13 15 -4z m45 9 c0 -5 -5 -10 -11 -10 -5 0 -7 5 -4 10 3 6 8 10
11 10 2 0 4 -4 4 -10z m-1799 -51 c114 -79 229 -180 365 -323 l124 -129 182
77 c100 43 187 80 193 82 11 5 23 -41 51 -209 7 -43 19 -89 28 -102 24 -37 94
-89 200 -148 l98 -56 -57 -37 c-82 -52 -170 -90 -240 -104 -73 -14 -463 -26
-530 -15 -46 6 -55 14 -202 163 l-153 157 -45 -50 c-87 -96 -186 -325 -231
-533 -10 -45 -21 -79 -25 -75 -4 5 -17 40 -29 78 -75 245 -85 498 -28 740 46
199 182 535 216 535 5 0 42 -23 83 -51z m1758 8 c-2 -1 -13 -9 -24 -17 -19
-14 -19 -14 -6 3 7 9 18 17 24 17 6 0 8 -1 6 -3z m-179 -17 c0 -5 -4 -10 -10
-10 -5 0 -10 5 -10 10 0 6 5 10 10 10 6 0 10 -4 10 -10z m57 -22 c-3 -8 -6 -5
-6 6 -1 11 2 17 5 13 3 -3 4 -12 1 -19z m-59 -33 c1 -14 -2 -25 -7 -25 -5 0
-7 -10 -4 -22 3 -13 2 -19 -3 -15 -14 13 -16 58 -3 73 15 18 14 18 17 -11z
m47 -23 c-6 -7 -35 18 -35 31 0 5 9 2 20 -8 11 -10 18 -20 15 -23z m-281 -18
c19 -18 20 -44 5 -97 -27 -100 -116 -133 -223 -84 -31 14 -56 24 -56 22 0 -2
21 -16 48 -31 32 -20 66 -30 107 -34 l60 -5 -2 -40 -2 -40 10 34 c6 18 13 31
16 28 3 -4 13 1 22 10 11 12 13 17 3 21 -6 2 -12 9 -12 15 1 7 9 2 18 -9 24
-28 116 -43 125 -21 3 9 -1 18 -10 21 -12 5 -4 17 36 55 28 26 51 52 51 57 0
5 15 15 33 22 28 10 30 10 14 -2 -18 -14 -17 -14 2 -21 27 -8 30 -55 3 -55
-12 0 -22 -13 -31 -45 -13 -45 -24 -56 -35 -32 -3 6 -4 -5 -1 -25 4 -27 1 -40
-11 -50 -42 -34 -74 -72 -74 -89 0 -14 -7 -19 -26 -19 -30 0 -94 -58 -94 -86
0 -10 -12 -28 -27 -40 l-27 -21 -29 91 c-28 85 -34 95 -96 154 -52 51 -67 60
-69 45 -2 -10 -32 -37 -68 -59 l-64 -42 -20 65 c-11 36 -20 90 -20 120 0 49 4
59 34 89 32 32 39 34 98 34 81 0 174 17 212 38 16 10 38 23 50 29 27 16 31 16
50 -3z m276 -24 c0 -5 -5 -10 -11 -10 -5 0 -7 -4 -4 -10 3 -5 1 -10 -4 -10
-13 0 -13 3 -5 24 7 18 24 22 24 6z m14 -69 c-8 -9 -22 12 -17 26 6 15 7 14
13 -3 4 -10 6 -21 4 -23z m-115 -4 c-16 -31 -61 -77 -75 -77 -7 0 -11 -10 -9
-25 3 -32 -22 -34 -35 -2 l-9 22 0 -22 c-1 -14 -7 -23 -16 -23 -18 0 -18 2 -3
35 8 18 16 24 30 19 10 -3 25 0 33 6 8 7 15 9 15 5 0 -11 49 56 56 77 4 10 10
15 15 12 5 -3 4 -15 -2 -27z m-2067 -164 c-40 -2 -103 -2 -140 0 -37 2 -4 3
73 3 77 0 107 -2 67 -3z m-682 -134 c58 -17 157 -42 220 -54 89 -18 105 -24
70 -24 -93 -1 -351 43 -433 75 -24 9 -50 -87 -51 -180 0 -83 -8 -78 -27 18 -9
49 1 149 21 200 9 25 10 25 52 10 24 -8 90 -29 148 -45z m387 -85 c-3 -3 -12
-4 -19 -1 -8 3 -5 6 6 6 11 1 17 -2 13 -5z"/>
<path d="M2239 3463 c-13 -16 -12 -17 4 -4 9 7 17 15 17 17 0 8 -8 3 -21 -13z"/>
<path d="M2140 3071 c0 -25 6 -31 36 -41 74 -25 136 -103 150 -191 7 -39 8
-41 16 -18 20 51 -9 147 -60 202 -22 23 -117 77 -136 77 -3 0 -6 -13 -6 -29z"/>
<path d="M1858 2979 c17 -5 32 -15 32 -21 0 -6 3 -8 6 -5 13 12 -18 37 -45 36
-24 -1 -24 -1 7 -10z"/>
<path d="M1832 2918 c-15 -15 -15 -35 0 -40 17 -6 52 28 43 41 -8 14 -28 14
-43 -1z"/>
<path d="M2213 2869 c10 -6 22 -20 27 -32 8 -21 9 -21 9 -1 1 24 -17 44 -38
44 -13 -1 -12 -3 2 -11z"/>
<path d="M2156 2795 c-20 -20 -20 -29 -1 -45 9 -7 15 -8 15 -2 0 5 8 9 18 8
12 -1 17 6 17 24 0 30 -26 38 -49 15z"/>
<path d="M2090 2751 c0 -6 9 -11 19 -11 11 0 23 -4 26 -10 3 -5 11 -10 18 -10
17 0 -14 27 -40 35 -14 4 -23 2 -23 -4z"/>
<path d="M2465 2554 c-39 -20 -46 -28 -15 -19 22 7 23 6 11 -9 -7 -9 -9 -16
-3 -16 5 0 16 9 23 20 13 19 16 20 37 5 15 -11 22 -26 22 -48 0 -24 3 -28 10
-17 5 8 10 28 10 43 0 27 1 28 22 13 12 -9 28 -26 35 -38 l12 -23 1 23 c0 13
-13 37 -29 53 -34 34 -87 39 -136 13z"/>
<path d="M2416 2407 c9 -25 62 -38 105 -27 21 6 41 15 44 20 3 5 -8 4 -26 -2
-29 -10 -59 -5 -117 18 -7 4 -10 0 -6 -9z"/>
<path d="M1521 2294 c-1 -21 76 -129 119 -168 83 -75 179 -98 293 -72 38 9 80
23 95 31 l27 16 -35 -8 c-19 -4 -80 -8 -135 -8 -87 0 -107 3 -157 27 -55 26
-155 114 -191 168 -9 14 -16 20 -16 14z"/>
<path d="M4060 2959 c0 -5 -4 -8 -9 -5 -5 3 -14 -1 -21 -9 -7 -8 -17 -12 -23
-8 -6 3 -7 1 -3 -5 7 -12 36 -5 36 8 0 4 7 7 16 6 9 0 19 5 21 12 3 6 0 12 -6
12 -6 0 -11 -5 -11 -11z"/>
<path d="M2008 2333 c7 -3 16 -2 19 1 4 3 -2 6 -13 5 -11 0 -14 -3 -6 -6z"/>
<path d="M4378 2125 c2 -14 6 -25 8 -25 2 0 4 11 4 25 0 14 -4 25 -9 25 -4 0
-6 -11 -3 -25z"/>
<path d="M4350 2070 c-13 -8 -12 -10 3 -10 9 0 17 5 17 10 0 12 -1 12 -20 0z"/>
<path d="M4037 1539 c7 -7 15 -10 18 -7 3 3 -2 9 -12 12 -14 6 -15 5 -6 -5z"/>
<path d="M84 3195 c-19 -29 -13 -54 23 -86 l27 -24 -22 29 c-24 32 -29 75 -10
94 7 7 9 12 5 12 -3 0 -14 -11 -23 -25z"/>
<path d="M4110 2864 c0 -8 5 -12 10 -9 6 3 10 10 10 16 0 5 -4 9 -10 9 -5 0
-10 -7 -10 -16z"/>
<path d="M4786 2713 c-6 -14 -5 -15 5 -6 7 7 10 15 7 18 -3 3 -9 -2 -12 -12z"/>
<path d="M4036 2693 c-11 -11 -6 -23 9 -23 8 0 15 4 15 9 0 13 -16 22 -24 14z"/>
<path d="M4616 2381 c-3 -5 1 -11 9 -15 8 -3 15 -1 15 4 0 13 -18 22 -24 11z"/>
<path d="M3972 2369 c2 -6 14 -16 26 -20 29 -11 28 -5 -4 16 -17 11 -25 12
-22 4z"/>
<path d="M4565 2371 c-3 -5 -1 -12 5 -16 5 -3 10 1 10 9 0 18 -6 21 -15 7z"/>
<path d="M4646 2351 c-3 -5 0 -11 8 -14 15 -6 26 1 26 15 0 11 -27 10 -34 -1z"/>
<path d="M3930 2341 c0 -6 5 -13 10 -16 6 -3 10 1 10 9 0 9 -4 16 -10 16 -5 0
-10 -4 -10 -9z"/>
<path d="M4037 1995 c-4 -8 -3 -16 1 -19 13 -8 35 11 28 23 -10 15 -23 14 -29
-4z"/>
<path d="M3930 1977 c0 -10 17 -16 57 -21 29 -3 31 -1 22 15 -7 14 -19 18 -44
16 -19 -1 -35 -6 -35 -10z"/>
<path d="M4060 1952 c0 -6 -12 -25 -26 -42 -29 -33 -27 -45 4 -36 14 5 21 18
25 44 2 20 3 39 1 41 -2 2 -4 -1 -4 -7z"/>
<path d="M3954 1825 c-10 -8 -14 -15 -8 -15 6 0 17 7 24 15 16 19 9 19 -16 0z"/>
<path d="M4269 1271 c-11 -18 -30 -32 -55 -40 l-39 -11 39 5 c44 5 80 33 74
59 -2 12 -7 8 -19 -13z"/>
<path d="M4620 763 c0 -9 7 -54 16 -100 18 -100 16 -147 -9 -151 -21 -4 -35
27 -17 38 18 11 3 30 -23 30 -30 0 -81 33 -108 69 -25 34 -39 39 -39 16 0 -9
20 -37 45 -64 l45 -48 -24 -22 c-38 -36 -67 -25 -89 34 -22 60 -34 75 -58 75
-24 0 -39 -36 -39 -91 0 -56 -19 -46 -42 20 -24 71 -33 81 -66 72 -56 -15 -66
-111 -15 -151 19 -15 30 -17 44 -9 10 5 19 15 19 21 0 6 10 2 23 -10 21 -20
25 -21 45 -6 20 14 24 14 38 0 18 -19 26 -20 41 -5 8 8 17 8 29 1 22 -12 56
-1 97 34 l30 25 18 -31 c26 -41 75 -43 90 -3 15 40 -21 273 -42 273 -5 0 -9
-8 -9 -17z m-380 -163 c11 -21 4 -86 -10 -95 -13 -8 -40 36 -40 65 0 25 16 50
32 50 4 0 12 -9 18 -20z m145 -20 c19 -37 19 -70 0 -70 -13 0 -35 55 -35 88 0
22 19 13 35 -18z"/>
<path d="M3872 733 c2 -10 10 -18 18 -18 22 0 18 29 -3 33 -14 3 -18 -1 -15
-15z"/>
<path d="M3400 705 c7 -8 20 -15 30 -15 10 0 23 7 30 15 11 13 7 15 -30 15
-37 0 -41 -2 -30 -15z"/>
<path d="M4164 705 c11 -8 23 -15 26 -15 3 0 15 7 26 15 18 13 16 14 -26 14
-42 0 -44 -1 -26 -14z"/>
<path d="M3680 660 c0 -12 20 -40 45 -64 l44 -43 -22 -20 c-49 -45 -70 -34
-101 49 -32 86 -86 71 -86 -24 0 -57 -24 -68 -35 -15 -14 64 -34 94 -63 95
-36 0 -50 -13 -58 -52 -13 -73 50 -144 85 -97 l16 21 18 -20 c20 -24 30 -25
47 -5 11 14 15 14 32 -2 16 -14 22 -15 39 -4 16 9 24 9 35 0 17 -14 63 2 90
32 23 26 31 24 61 -11 34 -41 82 -42 113 -2 18 22 21 37 18 84 -5 64 -27 98
-63 98 -26 0 -35 -17 -35 -66 0 -35 35 -84 61 -84 8 0 8 -4 -1 -15 -17 -21
-53 -19 -74 4 -15 16 -15 19 -1 31 13 11 13 15 3 21 -7 5 -22 9 -32 9 -27 0
-79 37 -102 72 -22 33 -34 36 -34 8z m245 -33 c3 -12 2 -33 -3 -47 l-9 -24
-17 27 c-19 29 -14 67 9 67 8 0 17 -10 20 -23z m-441 -81 c-13 -63 -40 -59
-51 7 -3 24 -1 43 8 53 12 15 15 14 32 -7 13 -16 16 -31 11 -53z m146 18 c12
-37 7 -70 -10 -59 -13 8 -32 83 -25 95 10 16 22 3 35 -36z"/>
<path d="M4010 621 c-26 -49 5 -141 47 -141 14 0 14 -3 -2 -20 -20 -22 -15
-36 10 -26 43 16 56 128 21 181 -20 30 -61 33 -76 6z m58 -36 c15 -33 15 -48
0 -63 -17 -17 -48 14 -48 48 0 47 30 56 48 15z"/>
</g>
</svg>
